<svg width="304" height="40" xmlns="http://www.w3.org/2000/svg">
 <clipPath id="p.0">
  <path id="svg_1" clip-rule="nonzero" d="m0,0l304,0l0,100l-304,0l0,-100z"/>
 </clipPath>
 <g>
  <title>Layer 1</title>
  <g id="svg_2" clip-path="url(#p.0)">
   <path id="svg_3" fill-rule="nonzero" d="m0,-22l304.937012,0l0,100l-304.937012,0l0,-100z" fill-opacity="0" fill="#000000"/>
   <path id="svg_4" fill-rule="nonzero" d="m-6.49344,-20.881889l316.094453,0l0,97.763786l-316.094453,0l0,-97.763786z" fill-opacity="0" fill="#000000"/>
   <path id="svg_5" fill-rule="nonzero" d="m9.69406,32.993099q0,-0.6875 1.03124,-1.0625q1.031301,-0.375 2.1094,-0.8125q1.0937,-0.4375 2.3437,-1.0625q1.265699,-0.640598 2.2813,-1.5q1.0156,-0.875 1.6875,-1.968699q0.6719,-1.093801 0.6719,-2.453201q0,-0.906199 -0.6094,-2.125q-0.5938,-1.234299 -1.6094,-2.5q-1,-1.2656 -2.343699,-2.484299q-1.343801,-1.2344 -2.7032,-2.171901q-1.3437,-0.9375 -2.57809,-1.4688q-1.21875,-0.5312 -1.23437,-0.5312q0,1.4375 0.20312,3.703099q0.21875,2.2656 0.45313,4.5781q0.23437,2.2969 0.45312,4.593801q0.21879,2.2969 0.21879,4.6875q0,0.640598 -0.18754,1.203098q-0.17187,0.546902 -1.76562,1.234402l-1.04688,-1.046902l-1.79687,-19.499999q0.45312,0 0.04687,-0.2344q-0.40625,-0.25 -0.76562,-0.484301q-0.34375,-0.25 -0.76563,-0.6719q-0.42187,-0.4219 -0.42187,-1q0,-0.5938 0.51562,-1.0781q0.53125,-0.5 1.03125,-0.8594q0.51563,-0.3594 1.0625,-0.6719q0.54688,-0.3281 0.95313,-0.3281q1.10937,0 1.39062,0.5937q0.29688,0.5938 0.29688,1.0469q0,0.4375 0.01562,0.5781q0.01563,0.140699 0.04688,0.1719q1.39066,0.7969 2.92186,1.6406q1.531301,0.8438 3.1094,1.8594q1.5781,1.0156 3.0156,2.203099q1.4375,1.1719 2.5625,2.6094q1.125,1.421902 1.7969,3.093801q0.6719,1.671799 0.6719,3.671799q0,1.9219 -1.015699,3.8125q-1.0156,1.890701 -2.5625,3.375002q-1.5312,1.4688 -3.4531,2.421898q-1.9219,0.953102 -3.7969,0.953102q-0.7656,0 -1.5,-0.515602q-0.73434,-0.515598 -0.73434,-1.5zm12.976541,-9.765598q0.1875,-1.656301 0.3594,-3.3125q0.1875,-1.671902 0.4688,-3.343801q0.296801,-1.6718 0.8125,-3.2343q0.5156,-1.5625 1.5,-2.765699q0.984301,-1.2031 2.484301,-1.9531q1.5,-0.75 3.640699,-0.75q1.812399,0 3.2031,0.7813q1.4062,0.7812 2.375,2.0312q0.9687,1.25 1.546799,2.7969q0.578201,1.546901 0.921902,3.125001q0.3438,1.578098 0.5,3.140598q0.171898,1.5625 0.171898,2.859402q0,2.203098 -0.703098,4.390598q-0.703201,2.171902 -2.0313,3.9531q-1.328102,1.781301 -3.2812,2.9219q-1.9375,1.140602 -4.4219,1.140602q-2.25,0 -3.7187,-1.203102q-1.4688,-1.2187 -2.328199,-2.9219q-0.8437,-1.718699 -1.171801,-3.656199q-0.328199,-1.9375 -0.328199,-3.531301l0,-0.468699zm2.9375,0.390598q0,1.3125 0.25,2.843801q0.265699,1.5156 0.8594,2.75q0.5938,1.218699 1.5625,1.999998q0.9688,0.765602 2.4375,0.765602q1.812498,0 3.093699,-0.921902q1.2813,-0.9375 2.1563,-2.390598q0.890602,-1.4531 1.296902,-3.218801q0.4062,-1.7656 0.4062,-3.3125q0,-1.468699 -0.2187,-3.484299q-0.2188,-2.015701 -0.9063,-3.750001q-0.671902,-1.75 -1.828102,-2.875q-1.1563,-1.125 -2.937498,-1.125q-1.25,0 -2.1719,0.5937q-0.9062,0.5938 -1.609301,1.625q-0.703199,1.0313 -1.1719,2.421901q-0.4688,1.375 -0.7344,2.828098q-0.25,1.4531 -0.375,2.843801q-0.1094,1.3906 -0.1094,2.406199zm14.796898,-13.078099q0,-0.0469 0,-0.4688q0.25,-0.234301 0.359402,-0.4375q0.125,-0.2187 0.2812,-0.4375q0.1563,-0.2187 0.390598,-0.5781q0.234402,-0.3594 0.546902,-0.3594q0.109398,-0.046801 0.5938,-0.2187q0.3125,-0.125 1.5937,-0.125l0,2.8125l5.9063,11.468699l-0.5,0.515701q0.0312,-0.203201 0.375,-1.1875q0.3437,-0.9844 0.6875,-2.078201q0.359299,-1.093699 0.6875,-2.031199q0.328098,-0.9375 0.453098,-1.343801q0.109402,-0.25 0.359402,-0.7656q0.25,-0.515599 0.578098,-1.218699q0.3437,-0.703199 0.703102,-1.4844q0.375,-0.7813 0.703098,-1.4688q0.3438,-0.7031 0.578201,-1.234301q0.234299,-0.5469 0.3125,-0.703199q0.046799,-0.109301 0.109299,-0.546801q0.0625,-0.4375 0.2188,-0.9844q0.171902,-0.5625 0.625,-1.1094q0.453102,-0.5625 1.359402,-0.5625q0.25,0 0.296799,0.0313q0.0625,0.0156 0,0.0156q0.390701,0.0625 0.703201,0.2344q0.328098,0.1562 0.765598,0.1562l5.5625,23.140599q0.015602,0 0.156204,0.281301q0.156296,0.265598 0.296898,0.5625q0.140602,0.2969 0.3125,0.640598q0.1875,0.328102 0.1875,0.6563q0,-0.0938 0.015602,-0.015697q0.031296,0.078197 0.031296,0.2813q0,0.703098 -0.406296,1.359398q-0.390602,0.640602 -1.359303,0.640602q-0.640701,0 -1.203201,-0.375q-0.5625,-0.375 -0.5,-1.328102q-0.125,-0.5938 -0.4375,-1.984398q-0.3125,-1.406301 -0.734299,-3.2031q-0.4063,-1.7969 -0.8438,-3.765701q-0.421902,-1.984299 -0.828102,-3.7656q-0.4063,-1.7969 -0.7188,-3.1875q-0.296799,-1.406199 -0.5,-2.031199q-0.0625,-0.2188 -0.265598,-0.828199q-0.203102,-0.609301 -0.390602,-1.25q-0.1875,-0.6562 -0.375,-1.171801q-0.1875,-0.5313 0.390602,0.5312q-1.734402,2.5 -3.328102,6.765599q-1.578098,4.265701 -2.640598,8.781301q-0.4375,0.4375 -0.9063,0.468699q-0.453102,0.015701 -0.546902,0.015701q-1.0312,0 -1.609299,-0.8594q-0.578201,-0.875 -0.9063,-1.781301q-0.3125,-0.921799 -0.484402,-1.6406q-0.171799,-0.718699 -0.234299,-0.828098q-0.109402,-0.3125 -0.390701,-0.8906l-2.421799,-4.843801q-0.390701,-0.781199 -0.734402,-1.406199q-0.328098,-0.6407 1.078102,1.875l0,-2.3282q0.078098,0.671899 0.2188,2.2032q0.140598,1.5156 0.3125,3.4531q0.171799,1.9219 0.359299,4.031199q0.203201,2.1094 0.375,4.0469q0.1875,1.9375 0.3125,3.4375q0.140701,1.5 0.203201,2.171902q0.1875,0.609398 0.328098,1.171898q0.1562,0.5625 0.1562,1.296803q0,0.5625 -0.328098,1.140697q-0.328102,0.578102 -1.203102,0.578102q-0.875,0 -1.265598,-0.671902q-0.390701,-0.671898 -0.5,-1.25q-0.0938,-0.578098 -0.140701,-1.0312q-0.046799,-0.4375 -0.046799,-0.515697q-0.5938,-5.390602 -0.890701,-10.687502q-0.2812,-5.3125 -0.890598,-10.6093q-0.0312,-0.140699 -0.1562,-0.4844q-0.109402,-0.3594 -0.296902,-0.7656q-0.171898,-0.4219 -0.3438,-0.890699q-0.1562,-0.4687 -0.1562,-0.875l0,-0.1562zm27.101601,23.140599q-0.031296,-0.703098 -0.1875,-2.3125q-0.156296,-1.6094 -0.343796,-3.6719q-0.171913,-2.0781 -0.390602,-4.343699q-0.203102,-2.2656 -0.390602,-4.3281q-0.171898,-2.0625 -0.3125,-3.703201q-0.125,-1.640599 -0.171898,-2.406199l0,-0.3125q0,-0.1563 -0.015602,-0.4063q-0.015701,-0.2656 -0.015701,-0.5312l0,-0.7031q0,-0.265699 0.015701,-0.515699q0.015602,-0.25 0.015602,-0.421801l0,-0.390699q0.1875,-0.9687 0.765602,-1.125q0.578087,-0.171801 0.968796,-0.171801q0.140602,0 0.296799,0.0312q0.156303,0.0156 0.9375,0.0156l1.843803,22.437499q0.015602,0.0625 0.078102,0.2969q0.0625,0.2188 0.156296,0.546902q0.109299,0.328098 0.140602,0.546898q0.031197,0.203102 0.109398,0.375l0,0.4062q0,0.5313 -0.296898,0.890602q-0.281303,0.359398 -0.593803,0.5625q-0.3125,0.203197 -0.640587,0.359398q-0.328102,0.1563 -0.671913,0.1563q-0.453087,0 -0.875,-0.421898q-0.421799,-0.421902 -0.421799,-0.859402zm4.023399,-17.5625q0,-0.5469 -0.156296,-1.078098q-0.140602,-0.531301 -0.375,-1.078101q-0.234314,-0.5625 -0.4375,-1.203199q-0.203102,-0.6562 -0.203102,-1.4062q0,-0.3594 0.171898,-0.8906q0.171898,-0.5313 0.390602,-1.0313q0.234398,-0.5 0.546898,-1.0156q0.3125,-0.5156 1.046898,-0.8594q0.828102,0.2188 1.156204,1.1406q0.328102,0.9063 0.609398,1.7969q0.281204,0.8906 0.515602,1.625q0.234398,0.7344 0.281296,0.8125q0.234314,0.375 0.781204,1.125q0.5625,0.75 1.265602,1.687499q0.703186,0.9375 1.484398,1.9531q0.781296,1.015701 1.5,1.953201q0.718796,0.921799 1.296898,1.671799q0.578102,0.7344 0.875,1.093801q0.078102,0.1094 0.703102,0.703098q0.640602,0.593801 1.546898,1.421902l1.734398,1.5625q0.859314,0.765598 1.515602,1.2969q0.046898,0.093699 0.3125,0.3281q0.281204,0.2344 0.656204,0.593699q0.375,0.343801 0.6875,0.6094q0.328186,0.2656 -0.609314,-0.2969q-0.078186,0.281301 -0.1875,-0.921799q-0.109398,-1.203201 -0.109398,-2.25q0,-1.7969 -0.234398,-3.578201q-0.234413,-1.781199 -0.5,-3.5781q-0.25,-1.7969 -0.484413,-3.640599q-0.234306,-1.8594 -0.234306,-3.7344l0,-0.4375q0,-0.3437 0.015594,-0.6719q0.031204,-0.3281 0.031204,-0.5781l0,-0.6094q0.609398,-1.0781 1.531296,-1.0781q1.031204,0 1.328094,0.7344q0.3125,0.7344 0.328094,1.3594q0.031303,0.609301 -0.078094,1.0781q-0.093704,0.4531 -0.093704,0.3437l2.3125,19.499999q0,0.906301 -0.421898,1.390699q-0.406303,0.4687 -0.890602,0.75q-0.468796,0.2812 -0.9375,0.375q-0.453186,0.0937 -0.484398,0.109303q-0.093803,0.078197 -0.484413,0.078197l-0.156197,0q-0.531303,0 -0.9375,-0.328197q-0.390694,-0.3437 -0.671898,-0.6875q-0.265602,-0.3437 -0.453102,-0.734303q-0.171898,-0.390697 -0.218803,-0.453197q-0.281197,-0.328102 -1.156197,-1.187502q-0.859398,-0.875 -1.921898,-1.968699q-1.046913,-1.093801 -2.25,-2.3281q-1.1875,-1.2344 -2.265602,-2.375q-1.078194,-1.140701 -1.921898,-2.031301q-0.843803,-0.906199 -1.234413,-1.328098q-0.203087,-0.218801 -0.6875,-0.796902q-0.484398,-0.578098 -0.984398,-1.25q-0.484314,-0.6719 -0.953102,-1.281199q-0.453087,-0.6094 0.906303,1.843699l0,-1.8125q0,0.984402 -0.031303,2.0625q-0.015587,1.0781 -0.015587,2.031301l0,1.375q0,3.25 0.234398,6.4531q0.234306,3.203098 0.234306,6.515598l0,0.390602q-0.25,0.390697 -0.656197,0.828197q-0.406303,0.4375 -1.140602,0.8125l-1.421898,-1l0,-19.9063l0.000008,0l0.000031,0zm23.125,17.5625q-0.031296,-0.703098 -0.1875,-2.3125q-0.156296,-1.6094 -0.343796,-3.6719q-0.171814,-2.0781 -0.390602,-4.343699q-0.203102,-2.2656 -0.390602,-4.3281q-0.171898,-2.0625 -0.3125,-3.703201q-0.125,-1.640599 -0.171898,-2.406199l0,-0.3125q0,-0.1563 -0.015602,-0.4063q-0.015602,-0.2656 -0.015602,-0.5312l0,-0.7031q0,-0.265699 0.015602,-0.515699q0.015602,-0.25 0.015602,-0.421801l0,-0.390699q0.1875,-0.9687 0.765602,-1.125q0.578186,-0.171801 0.968796,-0.171801q0.140602,0 0.296898,0.0312q0.156204,0.0156 0.9375,0.0156l1.843704,22.437499q0.015602,0.0625 0.078102,0.2969q0.0625,0.2188 0.156296,0.546902q0.109398,0.328098 0.140602,0.546898q0.031296,0.203102 0.109398,0.375l0,0.4062q0,0.5313 -0.296898,0.890602q-0.281204,0.359398 -0.593704,0.5625q-0.3125,0.203197 -0.640686,0.359398q-0.328102,0.1563 -0.671814,0.1563q-0.453186,0 -0.875,-0.421898q-0.421898,-0.421902 -0.421898,-0.859402zm4.320305,0.203102q-0.0625,-0.6562 -0.156204,-1.8125q-0.093796,-1.1562 -0.171898,-2.5937q-0.078102,-1.4375 -0.1875,-3.0156q-0.093803,-1.578201 -0.171898,-2.9844q-0.078102,-1.406301 -0.156204,-2.5625q-0.078201,-1.171902 -0.078201,-1.7031q0,-0.1094 -0.015587,-0.6875q-0.015602,-0.578201 -0.046913,-1.343801q-0.015587,-0.765598 -0.015587,-1.4844l0,-2.187499q0,-0.7187 0.015587,-1.484301q0.031303,-0.765699 0.046913,-1.4219q0.015587,-0.6719 0.015587,-1.0781q0.343803,-0.6875 0.671913,-0.9063q0.343796,-0.2344 0.781296,-0.2344l1.046402,0l1.219002,15.656301l4.985001,-8.421902q0.25,-0.406199 0.670998,-0.890599q0.422005,-0.4844 1.188004,-0.4844q0.609001,0 1.077995,0.4844q0.484001,0.468699 0.484001,1.078099q0,0.125 -0.014999,0.2031q-0.015999,0.078201 -0.015999,0.25l-6.234001,10.718801q-1.265999,0 -0.844002,0.015598q0.438004,0.0156 0.578003,0.0156q1.655998,0 3.312996,-0.156199q1.672005,-0.156301 3.375,-0.359402q1.703003,-0.218699 3.406013,-0.375q1.718987,-0.156199 4.25,-0.156199q0,1.593699 -0.343987,2.3125q-0.328003,0.718699 -1.453003,1.281199q-0.375,-0.0625 -0.906013,-0.0625l-2.5,0q-0.515999,0 -0.735001,0.031301q-0.780998,0.046799 -1.842987,0.1875q-1.062996,0.125 -2.219002,0.281199q-1.140999,0.156301 -2.280998,0.296902q-1.125,0.140598 -2.015999,0.25q-0.891014,0.1094 -1.094002,0.140598q-0.186996,0.031301 -0.186996,-0.6094l0,3.156301q0,0.390598 -0.25,0.640598q-0.25,0.25 -0.375,0.359402l-0.265999,0.265598q-0.172005,0.203102 -0.406013,0.3438q-0.281013,0.171803 -0.546997,0.171803l-0.078003,0q-1.000099,0 -1.515694,-1.125l-0.000015,0l-0.000008,0zm35.054695,-9.515602q0,-0.781199 0.109009,-2.218699q0.125,-1.453201 0.406998,-3.140701q0.280991,-1.6875 0.75,-3.4531q0.468002,-1.765599 1.202988,-3.249999q0.734024,-1.4844 1.859024,-2.5469q1.140976,-1.0625 3.546997,-1.0625q0,1.625 -0.296997,2.1563q-0.297012,0.5156 -0.641022,0.9062q-0.343002,0.390699 -0.67099,0.7344q-0.32901,0.3438 -0.610001,0.8125q-0.671997,1.1719 -1.187012,2.578099q-0.5,1.406301 -0.843979,2.8594q-0.343979,1.4531 -0.468979,2.9531q-0.125,1.4844 -0.125,2.9375q0,0.9844 0.077988,2.078201q0.093994,1.093699 0.375,2.0625q0.297012,0.968699 0.797012,1.7031q0.515991,0.7187 1.280991,1.0312l0.344009,0q0.375,0 0.765991,0.015697q0.389999,0.015602 0.719009,0.015602l0.514999,0q0.437988,0 1.485001,-0.0625q1.04599,-0.078102 2.061996,-0.3125q1.015991,-0.234402 1.608994,-0.5781q0.610001,-0.343801 0.610001,-0.75q0,-0.218801 -0.280991,-0.625q-0.266022,-0.4219 -0.266022,-2.0469q1.391022,0 1.937012,0.2344q0.562988,0.234299 1.016006,0.593699q0.453003,0.343801 0.781006,0.875q0.343994,0.531301 0.343994,1.2031q0,1.015699 -0.671997,1.781301q-0.672012,0.75 -1.625,1.2812q-0.937012,0.515697 -2.031021,0.859398q-1.077988,0.3438 -2.156021,0.578102q-1.077988,0.2188 -2,0.328197q-0.921997,0.109303 -1.515976,0.109303q-2.281021,0 -3.734024,-1.078102q-1.437988,-1.0937 -2.187988,-2.6875q-0.75,-1.593699 -1.014999,-3.406199q-0.266006,-1.8125 -0.266006,-3.468801zm37.335999,-19.453099q-0.640991,-1.2188 0.234009,-1.9531q0.890991,-0.75 2.718994,-0.75l0,3l-2.921997,34.203101l-3.031006,-1.546902l3,-32.953099zm-20.515991,3.7187q-0.656006,0 -0.656006,-0.9062l0,-0.125q0,-0.5625 0.391006,-1.0469q0.405991,-0.4844 1.452988,-0.4844l0.047012,0.0469l0.030991,0l17.203003,9.328099q0.796997,0.156301 1.516006,0.5625q0.717987,0.390701 0.717987,1.75q0,0.390701 -0.155991,1.140701q-0.156006,0.75 -1.344009,0.75l-0.42099,0q-0.360001,-0.218801 -0.610001,-0.406301q-0.25,-0.203098 -0.531006,-0.406199q-0.265991,-0.218801 -0.608994,-0.468801q-0.344009,-0.265598 -0.360001,-0.328098l-16.671997,-9.406301zm39.625,23.781301q0.25,-0.171902 -0.828003,0.484398q-1.061996,0.6562 -2.219009,1.0937q-1.139999,0.421902 -2.375,0.625q-1.217987,0.1875 -2.608978,0.1875q-2.141022,0 -3.718979,-0.75q-1.578003,-0.75 -2.609024,-2.0625q-1.030975,-1.3125 -1.5,-3.031199q-0.468979,-1.718801 -0.468979,-3.703201q0,-2.125 0.360001,-4.7031q0.358978,-2.593699 1.186996,-5.140598q0.843994,-2.562501 2.218994,-4.828101q1.375,-2.265699 3.656006,-3.8125q0.328003,0 0.453003,0q0.140991,0 0.218979,0q0.609024,0 1.187012,0.3281q0.57901,0.3281 0.57901,1.2031q0,0.1563 -0.016022,0.2344q-0.015976,0.0781 -0.015976,0.4219q-1.968002,1.7031 -3.187012,3.5312q-1.202988,1.8125 -2.015991,3.874999q-0.811996,2.046902 -1.203003,4.2656q-0.391006,2.203201 -0.391006,4.468801q0,1.4844 0.360001,2.718699q0.375,1.218801 1.109009,2.1094q0.735001,0.875 1.813004,1.3438q1.092987,0.4687 2.561996,0.4687q0.313004,0 1.015991,-0.140598q0.702988,-0.140602 1.594009,-0.4063q0.905991,-0.265602 1.828003,-0.6562q0.921997,-0.3906 1.592987,-0.843801q0.687988,-0.4531 1.047012,-0.875q0.375,-0.4375 0.375,-0.8281l0,-6.593699q0.671997,0 0.25,-0.031301q-0.406021,-0.0469 -0.843002,-0.093699q-0.421997,-0.0625 -0.75,-0.093801q-0.313004,-0.031199 -0.344009,-0.031199q-0.202988,0.046799 -1.265991,0.2656q-1.046997,0.203098 -2.328003,0.5q-1.281006,0.2969 -2.578003,0.593699q-1.280975,0.281301 -2.077988,0.453201q-0.015991,0 -0.155991,0.0625q-0.141022,0.046799 -0.360001,0.109299q-0.219009,0.0625 -0.5,0.1719q-0.264999,0.093801 -0.281021,0.093801q-0.077988,0.031199 -0.280975,0.031199l-0.110001,0q-0.984024,0 -1.25,-0.75q-0.25,-0.75 -0.25,-1.203098q0,-0.4375 0.218979,-0.875q0.233994,-0.4531 0.891022,-0.6406l11.905975,-2.281301q0.156021,0 0.625,0q0.469025,0 0.75,0q0.141022,0 0.469025,-0.031199q0.342987,-0.0469 0.796997,0.0156q0.453003,0.0469 0.936996,0.406199q0.5,0.3594 0.5,1.140701l0,0.2656l-0.468979,2.265598l0,16.4688q-2.703003,0 -3.031021,-1.9375q-0.031006,-0.3438 -0.108994,-1.109398q-0.077988,-0.75 -0.156998,-1.625q-0.077988,-0.890602 -0.139999,-1.6563q-0.062988,-0.765602 -0.062988,0.5313l-0.000031,0l-0.000031,0zm4.812988,4.390598q-0.75,0 -1.093979,-0.4375q-0.328003,-0.421898 -0.437012,-0.890598q-0.094009,-0.453102 -0.046997,-0.8125q0.046997,-0.375 0.046997,-0.625l6.858994,-29.078101q0.109009,-0.4844 0.436996,-1.0157q0.32901,-0.5468 1.688004,-1.5156q0.406006,1.3594 0.578003,1.625q0.171997,0.25 0.578003,0.5625l10.921997,25.015599q0.125,0.1875 0.125,0.593801l0,0.2344q0,0.593699 -0.328003,1.2031q-0.313004,0.5937 -1.203003,0.5937q-1.046997,0 -1.468979,-0.9687l-2.797012,-6.484402q0,0.531301 -0.094009,0.5156q-0.092987,-0.0156 -0.327988,-0.0156q-0.125,0 -0.406006,0.031301q-0.281006,0.0156 -0.578003,0.031199q-0.296997,0.0156 -0.563004,0.0625q-0.264999,0.031301 -0.280991,0.031301q-0.844009,0.1406 -2.264999,0.406199q-1.406998,0.25 -2.766006,0.546902q-1.343994,0.281199 -2.233994,0.4844q-0.875,0.2031 -0.625,-0.0469l-2.235001,8.7812q-0.109009,0.625 -0.561996,0.890697q-0.453003,0.2812 -0.922012,0.2812zm7.078003,-26.828099q0.656006,-1.75 0.594009,-1.5781q-0.047012,0.171801 -0.125,0.375q-0.063004,0.1875 -0.110001,0.421801q-0.047012,0.2344 -0.093002,0.3438q-0.235001,0.875 -0.546997,2.2969l-1.375,6.140601q-0.344009,1.593699 -0.610001,2.9219q-0.25,1.3125 -0.422012,2.25q-0.155991,0.9375 -0.155991,0.3125q-0.311996,0 0.625,-0.078201q0.953003,-0.0781 2.030991,-0.25q1.094009,-0.171799 2.219009,-0.359299q1.140991,-0.203201 2,-0.453201q0.860001,-0.25 1.172012,-0.406199q0.327988,-0.171902 0.327988,0.031199q0,-0.046799 0,-0.109299q0,-0.0625 0.015991,-0.015701l-5.546997,-11.843699zm13.320007,23.421899q0.062988,-0.5625 0.125,-1.265697q0.062988,-0.703102 0.140991,-1.484301q0.078003,-0.781301 0.125,-1.468801q0.062012,-0.703098 0.062012,-0.953098q0,-0.625 0.015991,-1.921902q0.031006,-1.3125 0.031006,-2.953098l0,-6.9531q0,-1.6407 -0.031006,-2.9532q-0.015991,-1.3125 -0.015991,-2.1875q0.359985,-0.6406 0.656998,-0.8437q0.312012,-0.2031 0.843002,-0.2031l0.5,0q0.343994,0.2031 0.515991,0.3281q0.171997,0.1094 0.75,0.1094l0,20.265601q-0.656006,0 -0.375,0.0469q0.296997,0.031199 0.593994,0.062498q0.312012,0.015602 0.578003,0.015602q0.281006,0 0.312012,0q0.375,-0.046902 1.202988,-0.156301q0.844009,-0.125 1.937988,-0.234299q1.109024,-0.125 2.281021,-0.25q1.171997,-0.140701 2.235001,-0.281301q1.077988,-0.140598 1.905991,-0.25q0.827988,-0.1094 1.125,-0.1719q0.531006,-0.25 1,-0.375q0.484009,-0.125 1.139999,-0.125q1,0 1.344009,0.6719q0.343979,0.656301 0.343979,1.296902q0,0.5625 -0.202988,0.921898q-0.187988,0.3437 -0.655991,1.125q-2.438004,-0.25 -4.391022,-0.015697q-1.937988,0.2188 -3.921997,0.640697q-1.968979,0.4062 -3.968979,0.765602q-1.984024,0.359398 -3.984024,0.359398q-0.515976,0 -1.171997,-0.4375q-0.656021,-0.4375 -1.047012,-1.125l0.000031,0zm23.070999,-1.765697q0,-0.750002 0.42099,-1.312502q0.438004,-0.5781 2.110001,-1.8125q0.172012,2.281301 0.547012,2.656301q0.389999,0.375 1.155991,0.375q0.859009,0 1.984009,-0.3125q1.140991,-0.3281 2.110001,-0.921902q0.967987,-0.593699 1.546997,-1.375q0.593002,-0.781199 0.593002,-1.6719q0,-1 -0.889999,-1.6875q-0.875,-0.7031 -2.485001,-1.281199q-1.593002,-0.593801 -3.578003,-1.1406q-1.969009,-0.5469 -3.734009,-1.375q-1.75,-0.828201 -3.030991,-2.1719q-1.281998,-1.359402 -1.281998,-3.421902q-0.468002,-1.312499 0.312988,-2.656199q0.781021,-1.3438 2.047012,-2.390699q1.280991,-1.046801 2.905991,-1.9375q1.625,-0.8906 3.141006,-1.4531q1.530991,-0.5781 2.843002,-0.875q1.312988,-0.3125 2.421997,0.0938q1.110001,0.3906 0.140991,1.5312q-0.952988,1.125 -3.171997,2.4844q-0.578003,0 -1.171997,-0.0781q-0.578003,-0.078199 -0.578003,-0.078199q0.094009,-0.046801 -1.015991,0.5938q-1.109009,0.625 -2.109009,1.4531q-1,0.8125 -1.640991,1.7031q-0.625,0.874999 -0.625,1.624999q0,1.218801 0.906998,1.968801q0.905991,0.7344 2.483994,1.3594q1.594009,0.625 3.546997,1.156199q1.953003,0.5156 3.734009,1.296902q1.797012,0.765598 3.063004,2.093699q1.264999,1.328201 1.264999,3.531301q0,1.281199 -0.593002,2.3125q-0.594009,1.031199 -1.516006,1.8437q-0.905991,0.796898 -2.030991,1.390697q-1.125,0.578102 -2.297012,0.984303q-1.171997,0.4063 -2.312988,0.625q-1.139999,0.203197 -2.047012,0.203197q-0.625,0 -1.186996,-0.3438q-0.563004,-0.359398 -0.968994,-0.828098q-0.406006,-0.484402 -0.719009,-1.0313q-0.29599,-0.5625 -0.29599,-1.125zm15.022995,2.25q-0.063004,-0.6562 -0.156006,-1.8125q-0.093994,-1.1562 -0.171997,-2.5937q-0.078003,-1.4375 -0.187988,-3.0156q-0.093002,-1.578201 -0.172012,-2.9844q-0.077988,-1.406301 -0.155991,-2.5625q-0.078003,-1.171902 -0.078003,-1.7031q0,-0.1094 -0.016006,-0.6875q-0.014999,-0.578201 -0.04599,-1.343801q-0.016022,-0.765598 -0.016022,-1.4844l0,-2.187499q0,-0.7187 0.016022,-1.484301q0.030991,-0.765699 0.04599,-1.4219q0.016006,-0.6719 0.016006,-1.0781q0.343994,-0.6875 0.671997,-0.9063q0.343994,-0.2344 0.781006,-0.2344l1.047012,0l1.218979,15.656301l4.984009,-8.421902q0.25,-0.406199 0.671997,-0.890599q0.421997,-0.4844 1.187988,-0.4844q0.609009,0 1.078003,0.4844q0.484009,0.468699 0.484009,1.078099q0,0.125 -0.015991,0.2031q-0.015015,0.078201 -0.015015,0.25l-6.234985,10.718801q-1.265015,0 -0.843018,0.015598q0.437012,0.0156 0.578003,0.0156q1.656006,0 3.312012,-0.156199q1.671997,-0.156301 3.375,-0.359402q1.703003,-0.218699 3.406982,-0.375q1.718018,-0.156199 4.25,-0.156199q0,1.593699 -0.343994,2.3125q-0.328003,0.718699 -1.453003,1.281199q-0.375,-0.0625 -0.906982,-0.0625l-2.5,0q-0.515015,0 -0.734009,0.031301q-0.781006,0.046799 -1.843994,0.1875q-1.062012,0.125 -2.218018,0.281199q-1.140991,0.156301 -2.281982,0.296902q-1.125,0.140598 -2.014954,0.25q-0.890991,0.1094 -1.093994,0.140598q-0.187988,0.031301 -0.187988,-0.6094l0,3.156301q0,0.390598 -0.25,0.640598q-0.25,0.25 -0.375,0.359402l-0.265015,0.265598q-0.171997,0.203102 -0.405991,0.3438q-0.282013,0.171803 -0.547012,0.171803l-0.077988,0q-1,0 -1.516022,-1.125l-0.000031,0l-0.000015,0zm18.687012,-0.203102q-0.031006,-0.703098 -0.187012,-2.3125q-0.156006,-1.6094 -0.343994,-3.6719q-0.171997,-2.0781 -0.390015,-4.343699q-0.203979,-2.2656 -0.390991,-4.3281q-0.171997,-2.0625 -0.312988,-3.703201q-0.125,-1.640599 -0.171021,-2.406199l0,-0.3125q0,-0.1563 -0.015991,-0.4063q-0.015991,-0.2656 -0.015991,-0.5312l0,-0.7031q0,-0.265699 0.015991,-0.515699q0.015991,-0.25 0.015991,-0.421801l0,-0.390699q0.187012,-0.9687 0.765015,-1.125q0.578003,-0.171801 0.968994,-0.171801q0.140991,0 0.296997,0.0312q0.156006,0.0156 0.937012,0.0156l1.843994,22.437499q0.015991,0.0625 0.078003,0.2969q0.062988,0.2188 0.156006,0.546902q0.109985,0.328098 0.140991,0.546898q0.031006,0.203102 0.109009,0.375l0,0.4062q0,0.5313 -0.296021,0.890602q-0.281982,0.359398 -0.593994,0.5625q-0.312988,0.203197 -0.640991,0.359398q-0.328003,0.1563 -0.671997,0.1563q-0.453003,0 -0.875,-0.421898q-0.421997,-0.421902 -0.421997,-0.859402z" fill="#f3f3f3"/>
  </g>
 </g>
</svg>