<?xml version="1.0" encoding="utf-8"?>
<!-- Generator: Adobe Illustrator 18.0.0, SVG Export Plug-In . SVG Version: 6.00 Build 0)  -->
<!DOCTYPE svg PUBLIC "-//W3C//DTD SVG 1.1//EN" "http://www.w3.org/Graphics/SVG/1.1/DTD/svg11.dtd">
<svg version="1.1" xmlns="http://www.w3.org/2000/svg" xmlns:xlink="http://www.w3.org/1999/xlink" x="0px" y="0px"
	 viewBox="0 0 1130 1183" enable-background="new 0 0 1129.9 1183" xml:space="preserve">
<g id="Layer_3" display="none">
	<rect x="-28.5" y="-34.4" display="inline" fill="#101010" width="1190.9" height="1254"/>
</g>
<g id="Airport">
	<g>
		
			<rect x="715.4" y="566.1" fill="#0A0A0A" stroke="#282828" stroke-width="5" stroke-miterlimit="10" width="183.8" height="46.8"/>
		<rect x="730.8" y="484.6" fill="#0A0A0A" stroke="#282828" stroke-width="5" stroke-miterlimit="10" width="36.2" height="81.5"/>
		<polygon fill="#0A0A0A" stroke="#282828" stroke-width="5" stroke-miterlimit="10" points="715.4,461.7 782.5,461.7 775.2,484.3 
			722.6,484.3 		"/>
		<polygon fill="#0A0A0A" stroke="#282828" stroke-width="5" stroke-miterlimit="10" points="723.5,439 774.4,439 768.9,461.7 
			729,461.7 		"/>
		<line fill="#0A0A0A" stroke="#282828" stroke-width="5" stroke-miterlimit="10" x1="767" y1="434.7" x2="767" y2="407.6"/>
		<rect x="708.4" y="613.4" fill="#0A0A0A" stroke="#282828" stroke-width="5" stroke-miterlimit="10" width="197.8" height="3.3"/>
		<rect x="834.7" y="583.7" fill="none" stroke="#282828" stroke-width="5" stroke-miterlimit="10" width="19.9" height="31.3"/>
		<rect x="862.5" y="583.7" fill="none" stroke="#282828" stroke-width="5" stroke-miterlimit="10" width="29.3" height="20.3"/>
		<rect x="797.4" y="583.7" fill="none" stroke="#282828" stroke-width="5" stroke-miterlimit="10" width="29.3" height="20.3"/>
		<rect x="760.1" y="583.7" fill="#0A0A0A" stroke="#282828" stroke-width="5" stroke-miterlimit="10" width="29.3" height="20.3"/>
		<rect x="723.6" y="583.7" fill="#0A0A0A" stroke="#282828" stroke-width="5" stroke-miterlimit="10" width="29.3" height="20.3"/>
		<rect x="723.6" y="572.1" fill="#0A0A0A" stroke="#282828" stroke-width="5" stroke-miterlimit="10" width="65.8" height="4.7"/>
		<rect x="797.7" y="572.1" fill="none" stroke="#282828" stroke-width="5" stroke-miterlimit="10" width="29" height="4.7"/>
		<rect x="834.8" y="572.1" fill="none" stroke="#282828" stroke-width="5" stroke-miterlimit="10" width="57" height="4.7"/>
		<rect x="726.9" y="434.7" fill="#0A0A0A" stroke="#282828" stroke-width="5" stroke-miterlimit="10" width="44" height="4.3"/>
		<polygon fill="#0A0A0A" stroke="#282828" stroke-width="5" stroke-miterlimit="10" points="729.1,442.9 768.6,442.9 765,457.8 
			732.9,457.8 		"/>
		<polygon fill="#0A0A0A" stroke="#282828" stroke-width="5" stroke-miterlimit="10" points="722.3,465.8 775.5,465.8 771.2,480.2 
			726.6,480.2 		"/>
		<line fill="#0A0A0A" stroke="#282828" stroke-width="5" stroke-miterlimit="10" x1="748.9" y1="480.2" x2="748.9" y2="465.8"/>
		<line fill="#0A0A0A" stroke="#282828" stroke-width="5" stroke-miterlimit="10" x1="748.9" y1="457.8" x2="748.9" y2="442.9"/>
		<rect x="736.4" y="488.9" fill="#0A0A0A" stroke="#282828" stroke-width="5" stroke-miterlimit="10" width="24.9" height="4.7"/>
		<g>
			<g>
				<line fill="#505050" x1="896.5" y1="507.8" x2="798.7" y2="538.9"/>
				<path fill="#282828" d="M896.5,507.8c0,0,0,0.3-0.1,0.8c0,0.2-0.1,0.5-0.1,0.8c-0.1,0.3-0.1,0.6-0.2,1c-0.4,1.3-1,2.8-2.3,3.5
					c-1.3,0.6-2.9,1.1-4.7,1.8c-1.8,0.7-3.9,1.4-6.2,2.3c-4.5,1.6-9.8,3.5-15.5,5.5c-2.8,1-5.8,2-8.8,3c-3,1-6,2-9.1,3
					c-3,1-6.1,2-9.1,2.9c-3,1-6,1.9-8.9,2.7c-5.8,1.7-11.1,3.3-15.8,4.6c-2.3,0.7-4.5,1.2-6.3,1.7c-1.9,0.5-3.5,0.9-4.9,1.3
					c-2.7,0.7-4.3,1-4.3,1l-3-9.3c0,0,1.5-0.6,4.1-1.6c1.3-0.5,2.9-1.1,4.7-1.8c1.8-0.7,3.9-1.5,6.2-2.3c4.5-1.6,9.8-3.5,15.5-5.4
					c2.9-0.9,5.8-1.9,8.8-2.9c3-1,6.1-1.9,9.1-2.9c3.1-1,6.1-1.9,9.2-2.8c3-0.9,6-1.8,8.9-2.6c5.8-1.7,11.2-3.2,15.8-4.5
					c2.3-0.6,4.5-1.2,6.3-1.7c1.9-0.5,3.5-1,4.9-1.3c1.4-0.1,2.8,0.7,3.9,1.5c0.3,0.2,0.5,0.4,0.7,0.6c0.2,0.2,0.4,0.4,0.6,0.6
					C896.3,507.6,896.5,507.8,896.5,507.8z"/>
			</g>
			<g>
				<polygon fill="#505050" points="799.8,525.9 807.5,530.9 801.9,532.6 				"/>
				<polygon fill="#282828" points="797.9,518.7 792.8,520.3 798.7,538.9 819,532.5 797.9,518.7 				"/>
			</g>
			<g>
				<polygon fill="#505050" points="833.4,510.3 851.4,516.9 846.2,518.5 				"/>
				<polygon fill="#282828" points="813.2,497.6 815.5,504.8 845.5,524 866.8,517.2 813.2,497.6 				"/>
			</g>
		</g>
	</g>
	<g>
		
			<rect x="555.9" y="565.7" fill="#0A0A0A" stroke="#282828" stroke-width="5" stroke-miterlimit="10" width="183.8" height="46.8"/>
		<rect x="571.3" y="484.2" fill="#0A0A0A" stroke="#282828" stroke-width="5" stroke-miterlimit="10" width="36.2" height="81.5"/>
		<polygon fill="#0A0A0A" stroke="#282828" stroke-width="5" stroke-miterlimit="10" points="555.9,461.3 622.9,461.3 615.7,484 
			563.1,484 		"/>
		<polygon fill="#0A0A0A" stroke="#282828" stroke-width="5" stroke-miterlimit="10" points="563.9,438.6 614.8,438.6 609.3,461.3 
			569.4,461.3 		"/>
		<line fill="#0A0A0A" stroke="#282828" stroke-width="5" stroke-miterlimit="10" x1="607.5" y1="434.3" x2="607.5" y2="407.3"/>
		<rect x="548.9" y="613" fill="#0A0A0A" stroke="#282828" stroke-width="5" stroke-miterlimit="10" width="197.8" height="3.3"/>
		<rect x="675.1" y="583.3" fill="none" stroke="#282828" stroke-width="5" stroke-miterlimit="10" width="19.9" height="31.3"/>
		<rect x="703" y="583.3" fill="none" stroke="#282828" stroke-width="5" stroke-miterlimit="10" width="29.3" height="20.3"/>
		<rect x="637.9" y="583.3" fill="none" stroke="#282828" stroke-width="5" stroke-miterlimit="10" width="29.3" height="20.3"/>
		<rect x="600.6" y="583.3" fill="#0A0A0A" stroke="#282828" stroke-width="5" stroke-miterlimit="10" width="29.3" height="20.3"/>
		<rect x="564.1" y="583.3" fill="#0A0A0A" stroke="#282828" stroke-width="5" stroke-miterlimit="10" width="29.3" height="20.3"/>
		<rect x="564.1" y="571.8" fill="#0A0A0A" stroke="#282828" stroke-width="5" stroke-miterlimit="10" width="65.8" height="4.7"/>
		<rect x="638.2" y="571.8" fill="none" stroke="#282828" stroke-width="5" stroke-miterlimit="10" width="29" height="4.7"/>
		<rect x="675.3" y="571.8" fill="none" stroke="#282828" stroke-width="5" stroke-miterlimit="10" width="57" height="4.7"/>
		<rect x="567.4" y="434.3" fill="#0A0A0A" stroke="#282828" stroke-width="5" stroke-miterlimit="10" width="44" height="4.3"/>
		<polygon fill="#0A0A0A" stroke="#282828" stroke-width="5" stroke-miterlimit="10" points="569.6,442.5 609.1,442.5 605.4,457.4 
			573.3,457.4 		"/>
		<polygon fill="#0A0A0A" stroke="#282828" stroke-width="5" stroke-miterlimit="10" points="562.8,465.5 615.9,465.5 611.7,479.8 
			567.1,479.8 		"/>
		<line fill="#0A0A0A" stroke="#282828" stroke-width="5" stroke-miterlimit="10" x1="589.4" y1="479.8" x2="589.4" y2="465.5"/>
		<line fill="#0A0A0A" stroke="#282828" stroke-width="5" stroke-miterlimit="10" x1="589.4" y1="457.4" x2="589.4" y2="442.5"/>
		<rect x="576.9" y="488.5" fill="#0A0A0A" stroke="#282828" stroke-width="5" stroke-miterlimit="10" width="24.9" height="4.7"/>
		<g>
			<g>
				<line fill="#505050" x1="736.9" y1="507.4" x2="639.2" y2="538.5"/>
				<path fill="#282828" d="M736.9,507.4c0,0,0,0.3-0.1,0.8c0,0.2-0.1,0.5-0.1,0.8c-0.1,0.3-0.1,0.6-0.2,1c-0.4,1.3-1,2.8-2.3,3.5
					c-1.3,0.6-2.9,1.1-4.7,1.8c-1.8,0.7-3.9,1.4-6.2,2.3c-4.5,1.6-9.8,3.5-15.5,5.5c-2.8,1-5.8,2-8.8,3c-3,1-6,2-9.1,3
					c-3,1-6.1,2-9.1,2.9c-3,1-6,1.9-8.9,2.7c-5.8,1.7-11.1,3.3-15.8,4.6c-2.3,0.7-4.5,1.2-6.3,1.7c-1.9,0.5-3.5,0.9-4.9,1.3
					c-2.7,0.7-4.3,1-4.3,1l-3-9.3c0,0,1.5-0.6,4.1-1.6c1.3-0.5,2.9-1.1,4.7-1.8c1.8-0.7,3.9-1.5,6.2-2.3c4.5-1.6,9.8-3.5,15.5-5.4
					c2.9-0.9,5.8-1.9,8.8-2.9c3-1,6.1-1.9,9.1-2.9c3.1-1,6.1-1.9,9.2-2.8c3-0.9,6-1.8,8.9-2.6c5.8-1.7,11.2-3.2,15.8-4.5
					c2.3-0.6,4.5-1.2,6.3-1.7c1.9-0.5,3.5-1,4.9-1.3c1.4-0.1,2.8,0.7,3.9,1.5c0.3,0.2,0.5,0.4,0.7,0.6c0.2,0.2,0.4,0.4,0.6,0.6
					C736.8,507.2,736.9,507.4,736.9,507.4z"/>
			</g>
			<g>
				<polygon fill="#505050" points="640.3,525.5 647.9,530.5 642.4,532.3 				"/>
				<polygon fill="#282828" points="638.3,518.3 633.2,519.9 639.2,538.5 659.5,532.1 638.3,518.3 				"/>
			</g>
			<g>
				<polygon fill="#505050" points="673.9,509.9 691.8,516.5 686.7,518.2 				"/>
				<polygon fill="#282828" points="653.7,497.2 656,504.4 685.9,523.6 707.3,516.8 653.7,497.2 				"/>
			</g>
		</g>
	</g>
	<g>
		<rect x="591" y="593.2" fill="#0A0A0A" stroke="#505050" stroke-width="5" stroke-miterlimit="10" width="254" height="64.7"/>
		<rect x="612.3" y="480.6" fill="#0A0A0A" stroke="#505050" stroke-width="5" stroke-miterlimit="10" width="50" height="112.7"/>
		<polygon fill="#0A0A0A" stroke="#505050" stroke-width="5" stroke-miterlimit="10" points="591,448.9 683.6,448.9 673.6,480.2 
			601,480.2 		"/>
		<polygon fill="#0A0A0A" stroke="#505050" stroke-width="5" stroke-miterlimit="10" points="602.1,417.6 672.5,417.6 664.9,448.9 
			609.7,448.9 		"/>
		<line fill="#0A0A0A" stroke="#505050" stroke-width="5" stroke-miterlimit="10" x1="662.3" y1="411.6" x2="662.3" y2="374.2"/>
		<rect x="581.3" y="658.6" fill="#0A0A0A" stroke="#505050" stroke-width="5" stroke-miterlimit="10" width="273.3" height="4.5"/>
		<rect x="755.8" y="617.6" fill="none" stroke="#505050" stroke-width="5" stroke-miterlimit="10" width="27.5" height="43.3"/>
		<rect x="794.3" y="617.6" fill="none" stroke="#505050" stroke-width="5" stroke-miterlimit="10" width="40.5" height="28"/>
		<rect x="704.3" y="617.6" fill="none" stroke="#505050" stroke-width="5" stroke-miterlimit="10" width="40.5" height="28"/>
		<rect x="652.8" y="617.6" fill="#0A0A0A" stroke="#505050" stroke-width="5" stroke-miterlimit="10" width="40.5" height="28"/>
		<rect x="602.3" y="617.6" fill="#0A0A0A" stroke="#505050" stroke-width="5" stroke-miterlimit="10" width="40.5" height="28"/>
		<rect x="602.3" y="601.6" fill="#0A0A0A" stroke="#505050" stroke-width="5" stroke-miterlimit="10" width="90.9" height="6.5"/>
		<rect x="704.7" y="601.6" fill="none" stroke="#505050" stroke-width="5" stroke-miterlimit="10" width="40.1" height="6.5"/>
		<rect x="756" y="601.6" fill="none" stroke="#505050" stroke-width="5" stroke-miterlimit="10" width="78.8" height="6.5"/>
		<rect x="606.9" y="411.6" fill="#0A0A0A" stroke="#505050" stroke-width="5" stroke-miterlimit="10" width="60.8" height="6"/>
		<polygon fill="#0A0A0A" stroke="#505050" stroke-width="5" stroke-miterlimit="10" points="610,422.9 664.6,422.9 659.5,443.5 
			615.1,443.5 		"/>
		<polygon fill="#0A0A0A" stroke="#505050" stroke-width="5" stroke-miterlimit="10" points="600.6,454.7 674,454.7 668.1,474.5 
			606.5,474.5 		"/>
		<line fill="#0A0A0A" stroke="#505050" stroke-width="5" stroke-miterlimit="10" x1="637.3" y1="474.5" x2="637.3" y2="454.7"/>
		<line fill="#0A0A0A" stroke="#505050" stroke-width="5" stroke-miterlimit="10" x1="637.3" y1="443.5" x2="637.3" y2="422.9"/>
		<rect x="620.1" y="486.6" fill="#0A0A0A" stroke="#505050" stroke-width="5" stroke-miterlimit="10" width="34.4" height="6.5"/>
		<g>
			<g>
				<line fill="#505050" x1="841.2" y1="512.6" x2="706.1" y2="555.7"/>
				<path fill="#505050" d="M841.2,512.6c0,0-0.1,0.3-0.2,0.8c-0.1,0.2-0.2,0.5-0.3,0.8c-0.1,0.3-0.2,0.6-0.4,1
					c-0.6,1.4-1.7,3-3.5,3.9c-1.8,0.7-4,1.5-6.6,2.4c-2.5,0.9-5.4,1.9-8.6,3c-6.3,2.2-13.6,4.7-21.5,7.4c-3.9,1.3-8,2.7-12.1,4.1
					c-4.1,1.4-8.3,2.8-12.6,4.1c-4.2,1.4-8.4,2.7-12.6,4c-4.2,1.3-8.3,2.6-12.2,3.8c-7.9,2.4-15.4,4.7-21.8,6.5
					c-3.2,0.9-6.1,1.7-8.7,2.5c-2.6,0.7-4.9,1.4-6.8,1.9c-3.7,1-5.9,1.5-5.9,1.5l-3-9.3c0,0,2.1-0.8,5.7-2.2c1.8-0.7,4-1.5,6.6-2.4
					c2.5-0.9,5.4-2,8.6-3c6.3-2.2,13.6-4.7,21.5-7.3c4-1.3,8-2.6,12.2-4c4.2-1.3,8.4-2.7,12.6-4c4.2-1.3,8.5-2.6,12.6-3.9
					c4.2-1.3,8.3-2.5,12.3-3.7c8-2.4,15.4-4.5,21.8-6.4c3.2-0.9,6.1-1.7,8.7-2.5c2.6-0.7,4.9-1.4,6.7-1.9c1.9-0.3,3.8,0.4,5.1,1.2
					c0.3,0.2,0.6,0.4,0.9,0.6c0.3,0.2,0.5,0.4,0.7,0.5C841,512.4,841.2,512.6,841.2,512.6z"/>
			</g>
			<g>
				<polygon fill="#505050" points="704.2,533.1 704.2,533.1 722.6,545.2 709.3,549.4 				"/>
				<polygon fill="#505050" points="704.9,527.6 697.9,529.9 706.1,555.7 734.2,546.7 704.9,527.6 				"/>
			</g>
			<g>
				<polygon fill="#505050" points="738.5,508.4 784.8,525.3 771.5,529.6 				"/>
				<polygon fill="#505050" points="726.2,498.5 729.3,508.4 770.7,535.1 800.2,525.7 726.2,498.5 				"/>
			</g>
		</g>
	</g>
	<g>
		<rect x="591" y="241.3" fill="#0A0A0A" stroke="#505050" stroke-width="5" stroke-miterlimit="10" width="254" height="64.7"/>
		<rect x="612.3" y="128.7" fill="#0A0A0A" stroke="#505050" stroke-width="5" stroke-miterlimit="10" width="50" height="112.7"/>
		<polygon fill="#0A0A0A" stroke="#505050" stroke-width="5" stroke-miterlimit="10" points="591,97 683.6,97 673.6,128.3 
			601,128.3 		"/>
		<polygon fill="#0A0A0A" stroke="#505050" stroke-width="5" stroke-miterlimit="10" points="602.1,65.7 672.5,65.7 664.9,97 
			609.7,97 		"/>
		<line fill="#0A0A0A" stroke="#505050" stroke-width="5" stroke-miterlimit="10" x1="662.3" y1="59.7" x2="662.3" y2="22.3"/>
		<rect x="581.3" y="306.7" fill="#0A0A0A" stroke="#505050" stroke-width="5" stroke-miterlimit="10" width="273.3" height="4.5"/>
		<rect x="755.8" y="265.7" fill="none" stroke="#505050" stroke-width="5" stroke-miterlimit="10" width="27.5" height="43.3"/>
		<rect x="794.3" y="265.7" fill="none" stroke="#505050" stroke-width="5" stroke-miterlimit="10" width="40.5" height="28"/>
		<rect x="704.3" y="265.7" fill="none" stroke="#505050" stroke-width="5" stroke-miterlimit="10" width="40.5" height="28"/>
		<rect x="652.8" y="265.7" fill="#0A0A0A" stroke="#505050" stroke-width="5" stroke-miterlimit="10" width="40.5" height="28"/>
		<rect x="602.3" y="265.7" fill="#0A0A0A" stroke="#505050" stroke-width="5" stroke-miterlimit="10" width="40.5" height="28"/>
		<rect x="602.3" y="249.7" fill="#0A0A0A" stroke="#505050" stroke-width="5" stroke-miterlimit="10" width="90.9" height="6.5"/>
		<rect x="704.7" y="249.7" fill="none" stroke="#505050" stroke-width="5" stroke-miterlimit="10" width="40.1" height="6.5"/>
		<rect x="756" y="249.7" fill="none" stroke="#505050" stroke-width="5" stroke-miterlimit="10" width="78.8" height="6.5"/>
		<rect x="606.9" y="59.7" fill="#0A0A0A" stroke="#505050" stroke-width="5" stroke-miterlimit="10" width="60.8" height="6"/>
		<polygon fill="#0A0A0A" stroke="#505050" stroke-width="5" stroke-miterlimit="10" points="610,71 664.6,71 659.5,91.6 
			615.1,91.6 		"/>
		<polygon fill="#0A0A0A" stroke="#505050" stroke-width="5" stroke-miterlimit="10" points="600.6,102.8 674,102.8 668.1,122.6 
			606.5,122.6 		"/>
		<line fill="#0A0A0A" stroke="#505050" stroke-width="5" stroke-miterlimit="10" x1="637.3" y1="122.6" x2="637.3" y2="102.8"/>
		<line fill="#0A0A0A" stroke="#505050" stroke-width="5" stroke-miterlimit="10" x1="637.3" y1="91.6" x2="637.3" y2="71"/>
		<rect x="620.1" y="134.7" fill="#0A0A0A" stroke="#505050" stroke-width="5" stroke-miterlimit="10" width="34.4" height="6.5"/>
		<g>
			<g>
				<line fill="#505050" x1="841.2" y1="160.7" x2="706.1" y2="203.8"/>
				<path fill="#505050" d="M841.2,160.7c0,0-0.1,0.3-0.2,0.8c-0.1,0.2-0.2,0.5-0.3,0.8c-0.1,0.3-0.2,0.6-0.4,1
					c-0.6,1.4-1.7,3-3.5,3.9c-1.8,0.7-4,1.5-6.6,2.4c-2.5,0.9-5.4,1.9-8.6,3c-6.3,2.2-13.6,4.7-21.5,7.4c-3.9,1.3-8,2.7-12.1,4.1
					c-4.1,1.4-8.3,2.8-12.6,4.1c-4.2,1.4-8.4,2.7-12.6,4c-4.2,1.3-8.3,2.6-12.2,3.8c-7.9,2.4-15.4,4.7-21.8,6.5
					c-3.2,0.9-6.1,1.7-8.7,2.5c-2.6,0.7-4.9,1.4-6.8,1.9c-3.7,1-5.9,1.5-5.9,1.5l-3-9.3c0,0,2.1-0.8,5.7-2.2c1.8-0.7,4-1.5,6.6-2.4
					c2.5-0.9,5.4-2,8.6-3c6.3-2.2,13.6-4.7,21.5-7.3c4-1.3,8-2.6,12.2-4c4.2-1.3,8.4-2.7,12.6-4c4.2-1.3,8.5-2.6,12.6-3.9
					c4.2-1.3,8.3-2.5,12.3-3.7c8-2.4,15.4-4.5,21.8-6.4c3.2-0.9,6.1-1.7,8.7-2.5c2.6-0.7,4.9-1.4,6.7-1.9c1.9-0.3,3.8,0.4,5.1,1.2
					c0.3,0.2,0.6,0.4,0.9,0.6c0.3,0.2,0.5,0.4,0.7,0.5C841,160.5,841.2,160.7,841.2,160.7z"/>
			</g>
			<g>
				<polygon fill="#505050" points="704.2,181.2 704.2,181.2 722.6,193.3 709.3,197.5 				"/>
				<polygon fill="#505050" points="704.9,175.7 697.9,178 706.1,203.8 734.2,194.8 704.9,175.7 				"/>
			</g>
			<g>
				<polygon fill="#505050" points="738.5,156.5 784.8,173.4 771.5,177.7 				"/>
				<polygon fill="#505050" points="726.2,146.6 729.3,156.5 770.7,183.2 800.2,173.8 726.2,146.6 				"/>
			</g>
		</g>
	</g>
	<g opacity="0.4">
		<g>
			<line fill="none" stroke="#C8C8C8" stroke-width="5" stroke-miterlimit="10" x1="345" y1="182.6" x2="462.3" y2="182.6"/>
			<g>
				<polygon fill="#C8C8C8" points="452.4,191.1 460.8,182.6 452.4,174.1 459.6,174.1 468,182.6 459.6,191.1 				"/>
			</g>
		</g>
	</g>
	<g opacity="0.4">
		<g>
			<line fill="none" stroke="#C8C8C8" stroke-width="5" stroke-miterlimit="10" x1="366" y1="515.1" x2="462.3" y2="515.1"/>
			<g>
				<polygon fill="#C8C8C8" points="452.4,523.5 460.8,515.1 452.4,506.6 459.6,506.6 468,515.1 459.6,523.5 				"/>
			</g>
		</g>
	</g>
	<g>
		
			<rect x="715.4" y="957.5" fill="#0A0A0A" stroke="#282828" stroke-width="5" stroke-miterlimit="10" width="183.8" height="46.8"/>
		<rect x="730.8" y="876" fill="#0A0A0A" stroke="#282828" stroke-width="5" stroke-miterlimit="10" width="36.2" height="81.5"/>
		<polygon fill="#0A0A0A" stroke="#282828" stroke-width="5" stroke-miterlimit="10" points="715.4,853.1 782.5,853.1 775.2,875.8 
			722.6,875.8 		"/>
		<polygon fill="#0A0A0A" stroke="#282828" stroke-width="5" stroke-miterlimit="10" points="723.5,830.4 774.4,830.4 768.9,853.1 
			729,853.1 		"/>
		<line fill="#0A0A0A" stroke="#282828" stroke-width="5" stroke-miterlimit="10" x1="767" y1="826.1" x2="767" y2="799.1"/>
		
			<rect x="708.4" y="1004.8" fill="#0A0A0A" stroke="#282828" stroke-width="5" stroke-miterlimit="10" width="197.8" height="3.3"/>
		<rect x="834.7" y="975.1" fill="none" stroke="#282828" stroke-width="5" stroke-miterlimit="10" width="19.9" height="31.3"/>
		<rect x="862.5" y="975.1" fill="none" stroke="#282828" stroke-width="5" stroke-miterlimit="10" width="29.3" height="20.3"/>
		<rect x="797.4" y="975.1" fill="none" stroke="#282828" stroke-width="5" stroke-miterlimit="10" width="29.3" height="20.3"/>
		<rect x="760.1" y="975.1" fill="#0A0A0A" stroke="#282828" stroke-width="5" stroke-miterlimit="10" width="29.3" height="20.3"/>
		<rect x="723.6" y="975.1" fill="#0A0A0A" stroke="#282828" stroke-width="5" stroke-miterlimit="10" width="29.3" height="20.3"/>
		<rect x="723.6" y="963.6" fill="#0A0A0A" stroke="#282828" stroke-width="5" stroke-miterlimit="10" width="65.8" height="4.7"/>
		<rect x="797.7" y="963.6" fill="none" stroke="#282828" stroke-width="5" stroke-miterlimit="10" width="29" height="4.7"/>
		<rect x="834.8" y="963.6" fill="none" stroke="#282828" stroke-width="5" stroke-miterlimit="10" width="57" height="4.7"/>
		<rect x="726.9" y="826.1" fill="#0A0A0A" stroke="#282828" stroke-width="5" stroke-miterlimit="10" width="44" height="4.3"/>
		<polygon fill="#0A0A0A" stroke="#282828" stroke-width="5" stroke-miterlimit="10" points="729.1,834.3 768.6,834.3 765,849.2 
			732.9,849.2 		"/>
		<polygon fill="#0A0A0A" stroke="#282828" stroke-width="5" stroke-miterlimit="10" points="722.3,857.3 775.5,857.3 771.2,871.6 
			726.6,871.6 		"/>
		<line fill="#0A0A0A" stroke="#282828" stroke-width="5" stroke-miterlimit="10" x1="748.9" y1="871.6" x2="748.9" y2="857.3"/>
		<line fill="#0A0A0A" stroke="#282828" stroke-width="5" stroke-miterlimit="10" x1="748.9" y1="849.2" x2="748.9" y2="834.3"/>
		<rect x="736.4" y="880.4" fill="#0A0A0A" stroke="#282828" stroke-width="5" stroke-miterlimit="10" width="24.9" height="4.7"/>
		<g>
			<g>
				<line fill="#505050" x1="896.5" y1="899.2" x2="798.7" y2="930.4"/>
				<path fill="#282828" d="M896.5,899.2c0,0,0,0.3-0.1,0.8c0,0.2-0.1,0.5-0.1,0.8c-0.1,0.3-0.1,0.6-0.2,1c-0.4,1.3-1,2.8-2.3,3.5
					c-1.3,0.6-2.9,1.1-4.7,1.8c-1.8,0.7-3.9,1.4-6.2,2.3c-4.5,1.6-9.8,3.5-15.5,5.5c-2.8,1-5.8,2-8.8,3c-3,1-6,2-9.1,3
					c-3,1-6.1,2-9.1,2.9c-3,1-6,1.9-8.9,2.7c-5.8,1.7-11.1,3.3-15.8,4.6c-2.3,0.7-4.5,1.2-6.3,1.7c-1.9,0.5-3.5,0.9-4.9,1.3
					c-2.7,0.7-4.3,1-4.3,1l-3-9.3c0,0,1.5-0.6,4.1-1.6c1.3-0.5,2.9-1.1,4.7-1.8c1.8-0.7,3.9-1.5,6.2-2.3c4.5-1.6,9.8-3.5,15.5-5.4
					c2.9-0.9,5.8-1.9,8.8-2.9c3-1,6.1-1.9,9.1-2.9c3.1-1,6.1-1.9,9.2-2.8c3-0.9,6-1.8,8.9-2.6c5.8-1.7,11.2-3.2,15.8-4.5
					c2.3-0.6,4.5-1.2,6.3-1.7c1.9-0.5,3.5-1,4.9-1.3c1.4-0.1,2.8,0.7,3.9,1.5c0.3,0.2,0.5,0.4,0.7,0.6c0.2,0.2,0.4,0.4,0.6,0.6
					C896.3,899,896.5,899.2,896.5,899.2z"/>
			</g>
			<g>
				<polygon fill="#505050" points="799.8,917.3 807.5,922.3 801.9,924.1 				"/>
				<polygon fill="#282828" points="797.9,910.1 792.8,911.7 798.7,930.4 819,923.9 797.9,910.1 				"/>
			</g>
			<g>
				<polygon fill="#505050" points="833.4,901.7 851.4,908.3 846.2,910 				"/>
				<polygon fill="#282828" points="813.2,889 815.5,896.2 845.5,915.5 866.8,908.7 813.2,889 				"/>
			</g>
		</g>
	</g>
	<g>
		
			<rect x="748.1" y="988.9" fill="#0A0A0A" stroke="#282828" stroke-width="5" stroke-miterlimit="10" width="183.8" height="46.8"/>
		<rect x="763.6" y="907.4" fill="#0A0A0A" stroke="#282828" stroke-width="5" stroke-miterlimit="10" width="36.2" height="81.5"/>
		<polygon fill="#0A0A0A" stroke="#282828" stroke-width="5" stroke-miterlimit="10" points="748.1,884.5 815.2,884.5 807.9,907.1 
			755.4,907.1 		"/>
		<polygon fill="#0A0A0A" stroke="#282828" stroke-width="5" stroke-miterlimit="10" points="756.2,861.8 807.1,861.8 801.6,884.5 
			761.7,884.5 		"/>
		<line fill="#0A0A0A" stroke="#282828" stroke-width="5" stroke-miterlimit="10" x1="799.7" y1="857.4" x2="799.7" y2="830.4"/>
		
			<rect x="741.1" y="1036.2" fill="#0A0A0A" stroke="#282828" stroke-width="5" stroke-miterlimit="10" width="197.8" height="3.3"/>
		<rect x="867.4" y="1006.5" fill="none" stroke="#282828" stroke-width="5" stroke-miterlimit="10" width="19.9" height="31.3"/>
		<rect x="895.2" y="1006.5" fill="none" stroke="#282828" stroke-width="5" stroke-miterlimit="10" width="29.3" height="20.3"/>
		<rect x="830.1" y="1006.5" fill="none" stroke="#282828" stroke-width="5" stroke-miterlimit="10" width="29.3" height="20.3"/>
		
			<rect x="792.9" y="1006.5" fill="#0A0A0A" stroke="#282828" stroke-width="5" stroke-miterlimit="10" width="29.3" height="20.3"/>
		
			<rect x="756.3" y="1006.5" fill="#0A0A0A" stroke="#282828" stroke-width="5" stroke-miterlimit="10" width="29.3" height="20.3"/>
		<rect x="756.3" y="994.9" fill="#0A0A0A" stroke="#282828" stroke-width="5" stroke-miterlimit="10" width="65.8" height="4.7"/>
		<rect x="830.4" y="994.9" fill="none" stroke="#282828" stroke-width="5" stroke-miterlimit="10" width="29" height="4.7"/>
		<rect x="867.5" y="994.9" fill="none" stroke="#282828" stroke-width="5" stroke-miterlimit="10" width="57" height="4.7"/>
		<rect x="759.6" y="857.4" fill="#0A0A0A" stroke="#282828" stroke-width="5" stroke-miterlimit="10" width="44" height="4.3"/>
		<polygon fill="#0A0A0A" stroke="#282828" stroke-width="5" stroke-miterlimit="10" points="761.9,865.7 801.4,865.7 797.7,880.6 
			765.6,880.6 		"/>
		<polygon fill="#0A0A0A" stroke="#282828" stroke-width="5" stroke-miterlimit="10" points="755.1,888.6 808.2,888.6 804,903 
			759.3,903 		"/>
		<line fill="#0A0A0A" stroke="#282828" stroke-width="5" stroke-miterlimit="10" x1="781.6" y1="903" x2="781.6" y2="888.6"/>
		<line fill="#0A0A0A" stroke="#282828" stroke-width="5" stroke-miterlimit="10" x1="781.6" y1="880.6" x2="781.6" y2="865.7"/>
		<rect x="769.2" y="911.7" fill="#0A0A0A" stroke="#282828" stroke-width="5" stroke-miterlimit="10" width="24.9" height="4.7"/>
		<g>
			<g>
				<line fill="#505050" x1="929.2" y1="930.6" x2="831.4" y2="961.7"/>
				<path fill="#282828" d="M929.2,930.6c0,0,0,0.3-0.1,0.8c0,0.2-0.1,0.5-0.1,0.8c-0.1,0.3-0.1,0.6-0.2,1c-0.4,1.3-1,2.8-2.3,3.5
					c-1.3,0.6-2.9,1.1-4.7,1.8c-1.8,0.7-3.9,1.4-6.2,2.3c-4.5,1.6-9.8,3.5-15.5,5.5c-2.8,1-5.8,2-8.8,3c-3,1-6,2-9.1,3
					c-3,1-6.1,2-9.1,2.9c-3,1-6,1.9-8.9,2.7c-5.8,1.7-11.1,3.3-15.8,4.6c-2.3,0.7-4.5,1.2-6.3,1.7c-1.9,0.5-3.5,0.9-4.9,1.3
					c-2.7,0.7-4.3,1-4.3,1l-3-9.3c0,0,1.5-0.6,4.1-1.6c1.3-0.5,2.9-1.1,4.7-1.8c1.8-0.7,3.9-1.5,6.2-2.3c4.5-1.6,9.8-3.5,15.5-5.4
					c2.9-0.9,5.8-1.9,8.8-2.9c3-1,6.1-1.9,9.1-2.9c3.1-1,6.1-1.9,9.2-2.8c3-0.9,6-1.8,8.9-2.6c5.8-1.7,11.2-3.2,15.8-4.5
					c2.3-0.6,4.5-1.2,6.3-1.7c1.9-0.5,3.5-1,4.9-1.3c1.4-0.1,2.8,0.7,3.9,1.5c0.3,0.2,0.5,0.4,0.7,0.6c0.2,0.2,0.4,0.4,0.6,0.6
					C929,930.4,929.2,930.6,929.2,930.6z"/>
			</g>
			<g>
				<polygon fill="#505050" points="832.5,948.7 840.2,953.7 834.7,955.4 				"/>
				<polygon fill="#282828" points="830.6,941.4 825.5,943.1 831.4,961.7 851.7,955.2 830.6,941.4 				"/>
			</g>
			<g>
				<polygon fill="#505050" points="866.1,933.1 884.1,939.7 878.9,941.3 				"/>
				<polygon fill="#282828" points="845.9,920.4 848.2,927.5 878.2,946.8 899.5,940 845.9,920.4 				"/>
			</g>
		</g>
	</g>
	<g>
		<rect x="652.9" y="943" fill="#0A0A0A" stroke="#282828" stroke-width="5" stroke-miterlimit="10" width="183.8" height="46.8"/>
		<rect x="668.3" y="861.5" fill="#0A0A0A" stroke="#282828" stroke-width="5" stroke-miterlimit="10" width="36.2" height="81.5"/>
		<polygon fill="#0A0A0A" stroke="#282828" stroke-width="5" stroke-miterlimit="10" points="652.9,838.6 720,838.6 712.7,861.2 
			660.1,861.2 		"/>
		<polygon fill="#0A0A0A" stroke="#282828" stroke-width="5" stroke-miterlimit="10" points="661,815.9 711.9,815.9 706.4,838.6 
			666.5,838.6 		"/>
		<line fill="#0A0A0A" stroke="#282828" stroke-width="5" stroke-miterlimit="10" x1="704.5" y1="811.5" x2="704.5" y2="784.5"/>
		<rect x="645.9" y="990.3" fill="#0A0A0A" stroke="#282828" stroke-width="5" stroke-miterlimit="10" width="197.8" height="3.3"/>
		<rect x="772.2" y="960.6" fill="none" stroke="#282828" stroke-width="5" stroke-miterlimit="10" width="19.9" height="31.3"/>
		<rect x="800" y="960.6" fill="none" stroke="#282828" stroke-width="5" stroke-miterlimit="10" width="29.3" height="20.3"/>
		<rect x="734.9" y="960.6" fill="none" stroke="#282828" stroke-width="5" stroke-miterlimit="10" width="29.3" height="20.3"/>
		<rect x="697.6" y="960.6" fill="#0A0A0A" stroke="#282828" stroke-width="5" stroke-miterlimit="10" width="29.3" height="20.3"/>
		<rect x="661.1" y="960.6" fill="#0A0A0A" stroke="#282828" stroke-width="5" stroke-miterlimit="10" width="29.3" height="20.3"/>
		<rect x="661.1" y="949" fill="#0A0A0A" stroke="#282828" stroke-width="5" stroke-miterlimit="10" width="65.8" height="4.7"/>
		<rect x="735.2" y="949" fill="none" stroke="#282828" stroke-width="5" stroke-miterlimit="10" width="29" height="4.7"/>
		<rect x="772.3" y="949" fill="none" stroke="#282828" stroke-width="5" stroke-miterlimit="10" width="57" height="4.7"/>
		<rect x="664.4" y="811.5" fill="#0A0A0A" stroke="#282828" stroke-width="5" stroke-miterlimit="10" width="44" height="4.3"/>
		<polygon fill="#0A0A0A" stroke="#282828" stroke-width="5" stroke-miterlimit="10" points="666.7,819.8 706.2,819.8 702.5,834.7 
			670.4,834.7 		"/>
		<polygon fill="#0A0A0A" stroke="#282828" stroke-width="5" stroke-miterlimit="10" points="659.8,842.7 713,842.7 708.8,857.1 
			664.1,857.1 		"/>
		<line fill="#0A0A0A" stroke="#282828" stroke-width="5" stroke-miterlimit="10" x1="686.4" y1="857.1" x2="686.4" y2="842.7"/>
		<line fill="#0A0A0A" stroke="#282828" stroke-width="5" stroke-miterlimit="10" x1="686.4" y1="834.7" x2="686.4" y2="819.8"/>
		<rect x="674" y="865.8" fill="#0A0A0A" stroke="#282828" stroke-width="5" stroke-miterlimit="10" width="24.9" height="4.7"/>
		<g>
			<g>
				<line fill="#505050" x1="834" y1="884.6" x2="736.2" y2="915.8"/>
				<path fill="#282828" d="M834,884.6c0,0,0,0.3-0.1,0.8c0,0.2-0.1,0.5-0.1,0.8c-0.1,0.3-0.1,0.6-0.2,1c-0.4,1.3-1,2.8-2.3,3.5
					c-1.3,0.6-2.9,1.1-4.7,1.8c-1.8,0.7-3.9,1.4-6.2,2.3c-4.5,1.6-9.8,3.5-15.5,5.5c-2.8,1-5.8,2-8.8,3c-3,1-6,2-9.1,3
					c-3,1-6.1,2-9.1,2.9c-3,1-6,1.9-8.9,2.7c-5.8,1.7-11.1,3.3-15.8,4.6c-2.3,0.7-4.5,1.2-6.3,1.7c-1.9,0.5-3.5,0.9-4.9,1.3
					c-2.7,0.7-4.3,1-4.3,1l-3-9.3c0,0,1.5-0.6,4.1-1.6c1.3-0.5,2.9-1.1,4.7-1.8c1.8-0.7,3.9-1.5,6.2-2.3c4.5-1.6,9.8-3.5,15.5-5.4
					c2.9-0.9,5.8-1.9,8.8-2.9c3-1,6.1-1.9,9.1-2.9c3.1-1,6.1-1.9,9.2-2.8c3-0.9,6-1.8,8.9-2.6c5.8-1.7,11.2-3.2,15.8-4.5
					c2.3-0.6,4.5-1.2,6.3-1.7c1.9-0.5,3.5-1,4.9-1.3c1.4-0.1,2.8,0.7,3.9,1.5c0.3,0.2,0.5,0.4,0.7,0.6c0.2,0.2,0.4,0.4,0.6,0.6
					C833.8,884.4,834,884.6,834,884.6z"/>
			</g>
			<g>
				<polygon fill="#505050" points="737.3,902.8 745,907.8 739.5,909.5 				"/>
				<polygon fill="#282828" points="735.4,895.5 730.3,897.2 736.2,915.8 756.5,909.3 735.4,895.5 				"/>
			</g>
			<g>
				<polygon fill="#505050" points="770.9,887.2 788.9,893.8 783.7,895.4 				"/>
				<polygon fill="#282828" points="750.7,874.5 753,881.6 783,900.9 804.3,894.1 750.7,874.5 				"/>
			</g>
		</g>
	</g>
	<g>
		
			<rect x="555.9" y="957.2" fill="#0A0A0A" stroke="#282828" stroke-width="5" stroke-miterlimit="10" width="183.8" height="46.8"/>
		<rect x="571.3" y="875.6" fill="#0A0A0A" stroke="#282828" stroke-width="5" stroke-miterlimit="10" width="36.2" height="81.5"/>
		<polygon fill="#0A0A0A" stroke="#282828" stroke-width="5" stroke-miterlimit="10" points="555.9,852.7 622.9,852.7 615.7,875.4 
			563.1,875.4 		"/>
		<polygon fill="#0A0A0A" stroke="#282828" stroke-width="5" stroke-miterlimit="10" points="563.9,830.1 614.8,830.1 609.3,852.7 
			569.4,852.7 		"/>
		<line fill="#0A0A0A" stroke="#282828" stroke-width="5" stroke-miterlimit="10" x1="607.5" y1="825.7" x2="607.5" y2="798.7"/>
		
			<rect x="548.9" y="1004.4" fill="#0A0A0A" stroke="#282828" stroke-width="5" stroke-miterlimit="10" width="197.8" height="3.3"/>
		<rect x="675.1" y="974.8" fill="none" stroke="#282828" stroke-width="5" stroke-miterlimit="10" width="19.9" height="31.3"/>
		<rect x="703" y="974.8" fill="none" stroke="#282828" stroke-width="5" stroke-miterlimit="10" width="29.3" height="20.3"/>
		<rect x="637.9" y="974.8" fill="none" stroke="#282828" stroke-width="5" stroke-miterlimit="10" width="29.3" height="20.3"/>
		<rect x="600.6" y="974.8" fill="#0A0A0A" stroke="#282828" stroke-width="5" stroke-miterlimit="10" width="29.3" height="20.3"/>
		<rect x="564.1" y="974.8" fill="#0A0A0A" stroke="#282828" stroke-width="5" stroke-miterlimit="10" width="29.3" height="20.3"/>
		<rect x="564.1" y="963.2" fill="#0A0A0A" stroke="#282828" stroke-width="5" stroke-miterlimit="10" width="65.8" height="4.7"/>
		<rect x="638.2" y="963.2" fill="none" stroke="#282828" stroke-width="5" stroke-miterlimit="10" width="29" height="4.7"/>
		<rect x="675.3" y="963.2" fill="none" stroke="#282828" stroke-width="5" stroke-miterlimit="10" width="57" height="4.7"/>
		<rect x="567.4" y="825.7" fill="#0A0A0A" stroke="#282828" stroke-width="5" stroke-miterlimit="10" width="44" height="4.3"/>
		<polygon fill="#0A0A0A" stroke="#282828" stroke-width="5" stroke-miterlimit="10" points="569.6,833.9 609.1,833.9 605.4,848.8 
			573.3,848.8 		"/>
		<polygon fill="#0A0A0A" stroke="#282828" stroke-width="5" stroke-miterlimit="10" points="562.8,856.9 615.9,856.9 611.7,871.2 
			567.1,871.2 		"/>
		<line fill="#0A0A0A" stroke="#282828" stroke-width="5" stroke-miterlimit="10" x1="589.4" y1="871.2" x2="589.4" y2="856.9"/>
		<line fill="#0A0A0A" stroke="#282828" stroke-width="5" stroke-miterlimit="10" x1="589.4" y1="848.8" x2="589.4" y2="833.9"/>
		<rect x="576.9" y="880" fill="#0A0A0A" stroke="#282828" stroke-width="5" stroke-miterlimit="10" width="24.9" height="4.7"/>
		<g>
			<g>
				<line fill="#505050" x1="736.9" y1="898.8" x2="639.2" y2="930"/>
				<path fill="#282828" d="M736.9,898.8c0,0,0,0.3-0.1,0.8c0,0.2-0.1,0.5-0.1,0.8c-0.1,0.3-0.1,0.6-0.2,1c-0.4,1.3-1,2.8-2.3,3.5
					c-1.3,0.6-2.9,1.1-4.7,1.8c-1.8,0.7-3.9,1.4-6.2,2.3c-4.5,1.6-9.8,3.5-15.5,5.5c-2.8,1-5.8,2-8.8,3c-3,1-6,2-9.1,3
					c-3,1-6.1,2-9.1,2.9c-3,1-6,1.9-8.9,2.7c-5.8,1.7-11.1,3.3-15.8,4.6c-2.3,0.7-4.5,1.2-6.3,1.7c-1.9,0.5-3.5,0.9-4.9,1.3
					c-2.7,0.7-4.3,1-4.3,1l-3-9.3c0,0,1.5-0.6,4.1-1.6c1.3-0.5,2.9-1.1,4.7-1.8c1.8-0.7,3.9-1.5,6.2-2.3c4.5-1.6,9.8-3.5,15.5-5.4
					c2.9-0.9,5.8-1.9,8.8-2.9c3-1,6.1-1.9,9.1-2.9c3.1-1,6.1-1.9,9.2-2.8c3-0.9,6-1.8,8.9-2.6c5.8-1.7,11.2-3.2,15.8-4.5
					c2.3-0.6,4.5-1.2,6.3-1.7c1.9-0.5,3.5-1,4.9-1.3c1.4-0.1,2.8,0.7,3.9,1.5c0.3,0.2,0.5,0.4,0.7,0.6c0.2,0.2,0.4,0.4,0.6,0.6
					C736.8,898.6,736.9,898.8,736.9,898.8z"/>
			</g>
			<g>
				<polygon fill="#505050" points="640.3,916.9 647.9,921.9 642.4,923.7 				"/>
				<polygon fill="#282828" points="638.3,909.7 633.2,911.3 639.2,930 659.5,923.5 638.3,909.7 				"/>
			</g>
			<g>
				<polygon fill="#505050" points="673.9,901.4 691.8,907.9 686.7,909.6 				"/>
				<polygon fill="#282828" points="653.7,888.6 656,895.8 685.9,915.1 707.3,908.3 653.7,888.6 				"/>
			</g>
		</g>
	</g>
	<g>
		
			<rect x="520.4" y="987.1" fill="#0A0A0A" stroke="#282828" stroke-width="5" stroke-miterlimit="10" width="183.8" height="46.8"/>
		<rect x="535.8" y="905.5" fill="#0A0A0A" stroke="#282828" stroke-width="5" stroke-miterlimit="10" width="36.2" height="81.5"/>
		<polygon fill="#0A0A0A" stroke="#282828" stroke-width="5" stroke-miterlimit="10" points="520.4,882.6 587.5,882.6 580.2,905.3 
			527.6,905.3 		"/>
		<polygon fill="#0A0A0A" stroke="#282828" stroke-width="5" stroke-miterlimit="10" points="528.5,859.9 579.4,859.9 573.9,882.6 
			534,882.6 		"/>
		<line fill="#0A0A0A" stroke="#282828" stroke-width="5" stroke-miterlimit="10" x1="572" y1="855.6" x2="572" y2="828.6"/>
		
			<rect x="513.4" y="1034.3" fill="#0A0A0A" stroke="#282828" stroke-width="5" stroke-miterlimit="10" width="197.8" height="3.3"/>
		<rect x="639.7" y="1004.7" fill="none" stroke="#282828" stroke-width="5" stroke-miterlimit="10" width="19.9" height="31.3"/>
		<rect x="667.5" y="1004.7" fill="none" stroke="#282828" stroke-width="5" stroke-miterlimit="10" width="29.3" height="20.3"/>
		<rect x="602.4" y="1004.7" fill="none" stroke="#282828" stroke-width="5" stroke-miterlimit="10" width="29.3" height="20.3"/>
		
			<rect x="565.1" y="1004.7" fill="#0A0A0A" stroke="#282828" stroke-width="5" stroke-miterlimit="10" width="29.3" height="20.3"/>
		
			<rect x="528.6" y="1004.7" fill="#0A0A0A" stroke="#282828" stroke-width="5" stroke-miterlimit="10" width="29.3" height="20.3"/>
		<rect x="528.6" y="993.1" fill="#0A0A0A" stroke="#282828" stroke-width="5" stroke-miterlimit="10" width="65.8" height="4.7"/>
		<rect x="602.7" y="993.1" fill="none" stroke="#282828" stroke-width="5" stroke-miterlimit="10" width="29" height="4.7"/>
		<rect x="639.8" y="993.1" fill="none" stroke="#282828" stroke-width="5" stroke-miterlimit="10" width="57" height="4.7"/>
		<rect x="531.9" y="855.6" fill="#0A0A0A" stroke="#282828" stroke-width="5" stroke-miterlimit="10" width="44" height="4.3"/>
		<polygon fill="#0A0A0A" stroke="#282828" stroke-width="5" stroke-miterlimit="10" points="534.2,863.8 573.7,863.8 570,878.7 
			537.9,878.7 		"/>
		<polygon fill="#0A0A0A" stroke="#282828" stroke-width="5" stroke-miterlimit="10" points="527.3,886.8 580.5,886.8 576.3,901.1 
			531.6,901.1 		"/>
		<line fill="#0A0A0A" stroke="#282828" stroke-width="5" stroke-miterlimit="10" x1="553.9" y1="901.1" x2="553.9" y2="886.8"/>
		<line fill="#0A0A0A" stroke="#282828" stroke-width="5" stroke-miterlimit="10" x1="553.9" y1="878.7" x2="553.9" y2="863.8"/>
		<rect x="541.5" y="909.9" fill="#0A0A0A" stroke="#282828" stroke-width="5" stroke-miterlimit="10" width="24.9" height="4.7"/>
		<g>
			<g>
				<line fill="#505050" x1="701.5" y1="928.7" x2="603.7" y2="959.9"/>
				<path fill="#282828" d="M701.5,928.7c0,0,0,0.3-0.1,0.8c0,0.2-0.1,0.5-0.1,0.8c-0.1,0.3-0.1,0.6-0.2,1c-0.4,1.3-1,2.8-2.3,3.5
					c-1.3,0.6-2.9,1.1-4.7,1.8c-1.8,0.7-3.9,1.4-6.2,2.3c-4.5,1.6-9.8,3.5-15.5,5.5c-2.8,1-5.8,2-8.8,3c-3,1-6,2-9.1,3
					c-3,1-6.1,2-9.1,2.9c-3,1-6,1.9-8.9,2.7c-5.8,1.7-11.1,3.3-15.8,4.6c-2.3,0.7-4.5,1.2-6.3,1.7c-1.9,0.5-3.5,0.9-4.9,1.3
					c-2.7,0.7-4.3,1-4.3,1l-3-9.3c0,0,1.5-0.6,4.1-1.6c1.3-0.5,2.9-1.1,4.7-1.8c1.8-0.7,3.9-1.5,6.2-2.3c4.5-1.6,9.8-3.5,15.5-5.4
					c2.9-0.9,5.8-1.9,8.8-2.9c3-1,6.1-1.9,9.1-2.9c3.1-1,6.1-1.9,9.2-2.8c3-0.9,6-1.8,8.9-2.6c5.8-1.7,11.2-3.2,15.8-4.5
					c2.3-0.6,4.5-1.2,6.3-1.7c1.9-0.5,3.5-1,4.9-1.3c1.4-0.1,2.8,0.7,3.9,1.5c0.3,0.2,0.5,0.4,0.7,0.6c0.2,0.2,0.4,0.4,0.6,0.6
					C701.3,928.5,701.5,928.7,701.5,928.7z"/>
			</g>
			<g>
				<polygon fill="#505050" points="604.8,946.8 612.5,951.8 607,953.6 				"/>
				<polygon fill="#282828" points="602.9,939.6 597.8,941.2 603.7,959.9 624,953.4 602.9,939.6 				"/>
			</g>
			<g>
				<polygon fill="#505050" points="638.4,931.3 656.4,937.8 651.2,939.5 				"/>
				<polygon fill="#282828" points="618.2,918.5 620.5,925.7 650.5,945 671.8,938.2 618.2,918.5 				"/>
			</g>
		</g>
	</g>
	<g>
		<rect x="591" y="984.7" fill="#0A0A0A" stroke="#505050" stroke-width="5" stroke-miterlimit="10" width="254" height="64.7"/>
		<rect x="612.3" y="872" fill="#0A0A0A" stroke="#505050" stroke-width="5" stroke-miterlimit="10" width="50" height="112.7"/>
		<polygon fill="#0A0A0A" stroke="#505050" stroke-width="5" stroke-miterlimit="10" points="591,840.3 683.6,840.3 673.6,871.7 
			601,871.7 		"/>
		<polygon fill="#0A0A0A" stroke="#505050" stroke-width="5" stroke-miterlimit="10" points="602.1,809 672.5,809 664.9,840.3 
			609.7,840.3 		"/>
		<line fill="#0A0A0A" stroke="#505050" stroke-width="5" stroke-miterlimit="10" x1="662.3" y1="803" x2="662.3" y2="765.7"/>
		<rect x="581.3" y="1050" fill="#0A0A0A" stroke="#505050" stroke-width="5" stroke-miterlimit="10" width="273.3" height="4.5"/>
		<rect x="755.8" y="1009" fill="none" stroke="#505050" stroke-width="5" stroke-miterlimit="10" width="27.5" height="43.3"/>
		<rect x="794.3" y="1009" fill="none" stroke="#505050" stroke-width="5" stroke-miterlimit="10" width="40.5" height="28"/>
		<rect x="704.3" y="1009" fill="none" stroke="#505050" stroke-width="5" stroke-miterlimit="10" width="40.5" height="28"/>
		<rect x="652.8" y="1009" fill="#0A0A0A" stroke="#505050" stroke-width="5" stroke-miterlimit="10" width="40.5" height="28"/>
		<rect x="602.3" y="1009" fill="#0A0A0A" stroke="#505050" stroke-width="5" stroke-miterlimit="10" width="40.5" height="28"/>
		<rect x="602.3" y="993" fill="#0A0A0A" stroke="#505050" stroke-width="5" stroke-miterlimit="10" width="90.9" height="6.5"/>
		<rect x="704.7" y="993" fill="none" stroke="#505050" stroke-width="5" stroke-miterlimit="10" width="40.1" height="6.5"/>
		<rect x="756" y="993" fill="none" stroke="#505050" stroke-width="5" stroke-miterlimit="10" width="78.8" height="6.5"/>
		<rect x="606.9" y="803" fill="#0A0A0A" stroke="#505050" stroke-width="5" stroke-miterlimit="10" width="60.8" height="6"/>
		<polygon fill="#0A0A0A" stroke="#505050" stroke-width="5" stroke-miterlimit="10" points="610,814.4 664.6,814.4 659.5,835 
			615.1,835 		"/>
		<polygon fill="#0A0A0A" stroke="#505050" stroke-width="5" stroke-miterlimit="10" points="600.6,846.1 674,846.1 668.1,865.9 
			606.5,865.9 		"/>
		<line fill="#0A0A0A" stroke="#505050" stroke-width="5" stroke-miterlimit="10" x1="637.3" y1="865.9" x2="637.3" y2="846.1"/>
		<line fill="#0A0A0A" stroke="#505050" stroke-width="5" stroke-miterlimit="10" x1="637.3" y1="835" x2="637.3" y2="814.4"/>
		<rect x="620.1" y="878" fill="#0A0A0A" stroke="#505050" stroke-width="5" stroke-miterlimit="10" width="34.4" height="6.5"/>
		<g>
			<g>
				<line fill="#505050" x1="841.2" y1="904" x2="706.1" y2="947.1"/>
				<path fill="#505050" d="M841.2,904c0,0-0.1,0.3-0.2,0.8c-0.1,0.2-0.2,0.5-0.3,0.8c-0.1,0.3-0.2,0.6-0.4,1
					c-0.6,1.4-1.7,3-3.5,3.9c-1.8,0.7-4,1.5-6.6,2.4c-2.5,0.9-5.4,1.9-8.6,3c-6.3,2.2-13.6,4.7-21.5,7.4c-3.9,1.3-8,2.7-12.1,4.1
					c-4.1,1.4-8.3,2.8-12.6,4.1c-4.2,1.4-8.4,2.7-12.6,4c-4.2,1.3-8.3,2.6-12.2,3.8c-7.9,2.4-15.4,4.7-21.8,6.5
					c-3.2,0.9-6.1,1.7-8.7,2.5c-2.6,0.7-4.9,1.4-6.8,1.9c-3.7,1-5.9,1.5-5.9,1.5l-3-9.3c0,0,2.1-0.8,5.7-2.2c1.8-0.7,4-1.5,6.6-2.4
					c2.5-0.9,5.4-2,8.6-3c6.3-2.2,13.6-4.7,21.5-7.3c4-1.3,8-2.6,12.2-4c4.2-1.3,8.4-2.7,12.6-4c4.2-1.3,8.5-2.6,12.6-3.9
					c4.2-1.3,8.3-2.5,12.3-3.7c8-2.4,15.4-4.5,21.8-6.4c3.2-0.9,6.1-1.7,8.7-2.5c2.6-0.7,4.9-1.4,6.7-1.9c1.9-0.3,3.8,0.4,5.1,1.2
					c0.3,0.2,0.6,0.4,0.9,0.6c0.3,0.2,0.5,0.4,0.7,0.5C841,903.8,841.2,904,841.2,904z"/>
			</g>
			<g>
				<polygon fill="#505050" points="704.2,924.6 704.2,924.6 722.6,936.6 709.3,940.8 				"/>
				<polygon fill="#505050" points="704.9,919.1 697.9,921.3 706.1,947.1 734.2,938.2 704.9,919.1 				"/>
			</g>
			<g>
				<polygon fill="#505050" points="738.5,899.8 784.8,916.8 771.5,921 				"/>
				<polygon fill="#505050" points="726.2,890 729.3,899.9 770.7,926.5 800.2,917.1 726.2,890 				"/>
			</g>
		</g>
	</g>
	<g opacity="0.4">
		<g>
			<line fill="none" stroke="#C8C8C8" stroke-width="5" stroke-miterlimit="10" x1="391.5" y1="926.5" x2="462.3" y2="926.5"/>
			<g>
				<polygon fill="#C8C8C8" points="452.4,935 460.8,926.5 452.4,918 459.6,918 468,926.5 459.6,935 				"/>
			</g>
		</g>
	</g>
</g>
<g id="Circle">
	<circle opacity="0.4" fill="#0A0A0A" stroke="#C8C8C8" stroke-width="5" stroke-miterlimit="10" cx="206.2" cy="182.6" r="60.8"/>
	<circle opacity="0.4" fill="#0A0A0A" stroke="#C8C8C8" stroke-width="5" stroke-miterlimit="10" cx="206.2" cy="534.6" r="95.3"/>
	<circle opacity="0.4" fill="#0A0A0A" stroke="#C8C8C8" stroke-width="5" stroke-miterlimit="10" cx="206.2" cy="925.6" r="131.1"/>
</g>
</svg>
