<?xml version="1.0" encoding="UTF-8" standalone="no"?>
<svg width="286.51758" height="300.31641" xmlns="http://www.w3.org/2000/svg" xmlns:svg="http://www.w3.org/2000/svg">
 <g>
  <title>Layer 1</title>
  <g transform="matrix(0.8738449,0,0,0.8738449,18.072831,18.943228) " id="Ebene_2">
   <path d="m41.03369,9.16162l19.55274,25.60108c-36.86182,28.63134 -60.58643,73.37402 -60.58643,123.66308c0,62.81445 37.01221,116.97559 90.4131,141.89014c6.57177,-14.74414 15.12254,-33.92529 23.29686,-52.24951c-41.42041,-16.43652 -70.70996,-56.8672 -70.70996,-104.14064c0,-33.1328 14.3916,-62.90038 37.25879,-83.40625l17.87353,23.40186l32.38575,-83.92139l-89.48438,9.16162l0,0.00001z" id="path5640" fill="#7f3f00"/>
  </g>
  <g stroke="null" id="svg_1">
   <path stroke="null" d="m239.57097,282.86349l-17.60521,-23.05112c33.19025,-25.77959 54.55182,-66.06577 54.55182,-111.34587c0,-56.55795 -33.32567,-105.32447 -81.40765,-127.75745c-5.91722,13.27558 -13.61632,30.54623 -20.97646,47.04531c37.29483,14.79939 63.66702,51.20304 63.66702,93.7679c0,29.83269 -12.95815,56.63533 -33.54771,75.09874l-16.09325,-21.07095l-29.16003,75.56256l80.57147,-8.24911z" id="path5642" fill="#aad4ff"/>
  </g>
 </g>
</svg>