<svg width="603" height="60" xmlns="http://www.w3.org/2000/svg">
 <clipPath id="p.0">
  <path id="svg_1" clip-rule="nonzero" d="m0,0l603,0l0,109l-603,0l0,-109z"/>
 </clipPath>
 <g>
  <title>Layer 1</title>
  <g id="svg_2" clip-path="url(#p.0)">
   <path id="svg_3" fill-rule="nonzero" d="m-5,-27l603.112976,0l0,109.739998l-603.112976,0l0,-109.739998z" fill-opacity="0" fill="#ffffff"/>
   <path id="svg_4" fill-rule="nonzero" d="m-5,-27l725.197021,0l0,118.079002l-725.197021,0l0,-118.079002z" fill-opacity="0" fill="#ffffff"/>
   <path id="svg_5" fill-rule="nonzero" d="m40.0625,17.1094q0.4063,1.2187 0.4063,1.9375l0,0.5q-0.203201,0.9844 -0.578201,1.6094q-0.375,0.625 -0.8125,1.0937q-0.421799,0.4688 -0.609299,0.6719q-1.4375,3.625 -3.3125,7.0781q-1.859398,3.4375 -3.765699,6.765598q-1.9062,3.3125 -3.7656,6.671902q-1.8437,3.359402 -3.5312,7.578098q-1.2813,0.484402 -1.953199,0.484402q-0.4687,0 -0.7812,-0.109402q-0.5938,-0.109299 -2.0625,-0.515598q-1.2813,-4.875 -3,-8.484402q-1.7188,-3.609299 -3.625,-7.109299q-1.8906,-3.5 -3.7344,-7.140699q-1.8437,-3.6562 -3.25,-8.0156q0,0.0313 0.0781,0.125q0.0938,0.0781 -0.0781,-0.0312q-0.1562,-0.1094 -0.6094,-0.4844q-0.4531,-0.375 -0.4531,-1.3125l0,-0.25q0,-1.125 0.4844,-1.9063q0.4687,-0.9375 1.4062,-1.4531q0.6875,-0.3437 1.4375,-0.3437q0.4063,0 0.7188,0.109301q0.9375,0.1875 2.0625,1.2969q0.2344,1.1094 0.5625,1.7656q0.3281,0.640699 0.7344,1.3594q0.421801,0.7031 0.7812,1.6094q0.375,0.9062 0.4844,1.75q1.1719,2.0469 2.1562,4.5312q0.9844,2.4688 1.875,4.6094q0.953199,1 1.7344,2.390598q0.7969,1.390701 1.5313,2.765701q0.734301,1.359299 1.375,2.75q0.6406,1.375 0.2031,0.6875q0.5781,-1.0313 2.4219,-3.9375q1.8437,-2.921898 3.546801,-5.875q1.703199,-2.9688 3.125,-6.015699q1.437498,-3.046801 2.453199,-7.0312q0.8125,-0.3125 1.1562,-0.7031q0.3438,-0.4063 1.5313,-0.7188q1.0312,0.1875 1.8125,0.4063q0.7812,0.2187 1.8437,0.8906zm4.5,-9.8125q2.2188,-1.3281 3.390598,-1.3281l0.468803,0q1.593697,0.3593 2.218697,1.75q0.203201,0.7031 0.203201,1.4531l0,0.6875q-0.2813,1.4219 -1.046898,2.2812q-0.921902,0.9219 -2.156303,0.9219q-0.671799,0 -0.781197,-0.0937q-0.9375,-0.078199 -2.546902,-1.9844q-0.1875,-0.7031 -0.1875,-1.0625q0,-0.9688 0.484402,-1.5781q-0.046902,0.0937 -0.046902,-0.0469l0,-1zm7.109402,45.7344q-1.156303,0.4687 -1.906303,0.4687q-0.8125,0 -1.3125,-0.359402q-0.9375,-0.4375 -1.531197,-1.484299q-0.593803,-1.046909 -0.859402,-2.0625q-0.25,-1.015701 -0.5312,-1.75q-1.0938,-2.7813 -1.875,-6.3125q-0.765701,-3.5313 -1.0938,-7.3125q-0.25,-3.125 -0.25,-6.2969l0,-1.2656q0.0625,-3.7969 0.7188,-7.5313q1.5312,-1.4062 2.984299,-1.4062l0.328201,0q1.890602,0.2187 2.625,1.8906q0.3125,0.625 0.3125,1.375q0,0.6094 -0.171898,1.2812q-0.296902,0.9844 -0.390602,2.0313q-0.125,1.3125 -0.125,2.9375l0,1.1094q0.0625,2.3437 0.125,3.921799q0,1.3125 0.0937,2.859402q0.0938,1.5313 0.328098,3.109402q0.25,1.5625 0.5625,3.0625q0.328201,1.484409 0.8125,2.656197q0.328201,0.9375 0.921902,1.890701q0.609402,0.9375 1.0938,1.984299q0.5,1.046902 0.5,2.218803q0,1.4375 -1.359398,2.984409l0,0l0,-0.000011zm34.9687,-29.703209q-0.75,1.703199 -1.515602,2.5469q-0.953102,1.0625 -2.796898,1.0625l-1.109299,0q-1.625,-2.2187 -2.609413,-3.8281q-0.984398,-1.6094 -2.171898,-2.5625q-2.093704,-0.7031 -4.5,-0.9844q-0.609413,-0.0625 -1.296913,-0.0625q-1.828087,0 -3.843697,0.5156q-1,0.265699 -2.218803,0.875q-1.2187,0.5938 -1.515598,0.9688q-0.4375,0.6094 -1.078102,1.1406q-0.625,0.5156 -1.0625,0.9688q-0.421898,0.4531 -0.640591,0.9687q-0.125,0.2344 -0.125,0.5469q0,0.125 0.046803,0.3594q0.0313,0.3281 0.265697,0.7031q0.234303,0.375 0.671803,0.8437q0.4375,0.4688 0.921898,0.828199q0.5,0.359301 0.9375,0.5625q0.671902,0.296801 1.437504,0.4375q0.781296,0.1406 1.671898,0.2656q0.890602,0.125 1.906197,0.3594q1.031303,0.234301 1.609413,0.7031q2.703087,0.0469 5.906303,1.2187q3.218697,1.171898 5.640587,3.171898q2.359413,3.171902 2.359413,6.296902l0,0.484409q-0.218803,3.3437 -2.265701,5.859299q-2.046799,2.515701 -5.375,3.890701q-2.546799,1.0312 -5.375,1.0312q-0.796799,0 -1.828094,-0.078098q-2.046906,-0.703091 -3.796906,-1.546902q-1.734303,-0.828098 -3.171803,-2.0937q-1.4375,-1.265701 -2.4375,-3q-1,-1.75 -1.453209,-5.625l1.6875,0q0.0625,0 0.2188,-0.078201q0.5625,-0.218697 1.109409,-0.421799q0.671799,-0.1875 1.234299,-0.1875l0.281303,0q1.031197,0.140591 1.593697,0.8125q0.687504,0.4375 1.140713,1.578091q0.125,0.5625 0.125,0.9375q0,0.75 0.031197,0.703098q0.625,0.890602 2.468803,1.625q1.5,0.6563 3.046799,0.6563q0.281303,0 0.656303,-0.046909q1.921906,-0.171898 3.531197,-1.125q1.625,-0.9688 2.203201,-2.4375q-0.0625,-0.640591 -0.484413,-1.515591q-0.406296,-0.875 -0.890587,-1.453197q-1.421913,-0.796803 -3.421913,-1.390602q-2,-0.609398 -4.156296,-1.140598q-2.140594,-0.5313 -4.296803,-1.109402q-2.1563,-0.578098 -4.1563,-1.515598q-1.984402,-0.953102 -3.5937,-2.4375q-1.5938,-1.5 -2.5313,-4.0781l0,-2.9063q0.4063,-1.5469 1.046902,-2.5781q0.640598,-1.0313 1.375,-1.9063q0.75,-0.875 1.5,-1.5937q0.75,-0.7188 1.5625,-1.6719q0.953098,-0.5156 1.6875,-0.8281q0.734409,-0.3281 1.390598,-0.6406q0.6563,-0.3125 1.140598,-0.6563q0.484402,-0.3437 1.328213,-1.546901q1.609299,0.4532 2.421799,0.4532q-0.1875,0 -0.0625,-0.0625q1.343803,0 2.453201,-0.1407q1.125,-0.156199 2.281197,-0.2968l0.953094,0q0.640701,0 1.25,0.0781q3.265701,0.5469 5.515701,2.125q2.265587,1.5625 4.765587,3.4844q0.078087,0.9375 0.265587,1.234301q0.203094,0.2969 0.515594,0.6719q0.328201,0.375 0.734406,0.875q0.421913,0.4844 0.890594,1.7031l0.000015,0l0.000023,0l-0.000008,0zm35.0784,6.0313l0,0.6875q0,1.4687 -0.203003,2.8125q-0.110001,0.8437 -0.110001,1.5q0,0.484398 0.078003,1.125q-0.828003,3.6562 -2.484001,6.765598q-1.655998,3.109402 -4.078003,5.4375q-2.421997,2.3125 -5.625,3.5313q-2.343987,0.9062 -4.968987,0.9062q-1.014999,0 -2.094002,-0.140598q-3.593002,-0.4063 -6.125,-2.203091q-2.530899,-1.8125 -4.155899,-4.515701q-1.625,-2.718697 -2.406197,-6.093697q-0.781303,-3.375 -0.984413,-6.984402q-0.0625,-1.1094 -0.0625,-2.3281q0,-1.2188 0.0625,-2.5625q0.0625,-1.2188 0.0625,-2.5q0,-1.2188 -0.0625,-2.4375q-0.046898,-1.0313 -0.281197,-2.2188q-0.218803,-0.859301 -0.218803,-1.5937q0,-0.5469 0.109413,-0.9531q0.281197,-1.1875 1.078087,-1.8125q0.796913,-0.640699 1.890602,-0.75l0.25,0q0.734398,0 1.5625,0.3125q0.875,0.484301 1.8125,1.6562q0.078201,2.4688 0.078201,4.5469q0,2.0781 -0.0625,4.1875q-0.0625,1.1562 -0.0625,2.25q0,2.8125 0.25,5.4531q0.297195,3.578098 1.312187,6.484402q1.032013,2.890598 3.360001,4.703098q0.561996,0.421902 1.359001,0.6875q0.796997,0.25 1.765999,0.359402q0.968002,0.109409 2.077995,0.140598q1.125,0.0313 1.937004,0.0313q2.812996,-1.046909 4.687996,-3.3125q1.875,-2.2813 3.265015,-4.9688q0.343987,-2.015598 0.578987,-3.953098q0.25,-1.937502 0.375,-3.796902l0,-3.8437q-0.125,-1.875 -0.328987,-3.7813q-0.375,-0.4687 -0.687004,-1.5781q-0.233986,-0.8125 -0.233986,-1.6875l0,-0.3594q0.092987,-1.1719 0.702995,-2.2031q0.625,-1.0313 2.218002,-1.2656l0.344002,0q1.235001,0 1.985001,0.625q0.75,0.625 1.030998,1.609301q0.25,0.75 0.25,1.6563l0,0.2344q-0.062996,0.875 -0.125,1.4531q0,0.6719 0.109001,1.7969q0.125,1.109301 0.280998,2.3281q0.156998,1.2031 0.313004,2.4375q0.171997,1.2187 0.171997,2.125l-0.000023,-0.00001l0.000023,0l-0.000008,0zm44.734001,17.421898q-0.359009,1.421803 -0.734009,2.3437q-0.360001,0.921902 -1.437988,1.390602q-0.578003,0.234398 -1.264999,0.234398q-0.438004,0 -0.844009,-0.078098q-1,-0.140591 -2.063004,-0.578091q-1.061996,-0.421909 -2.030991,-0.984409q-0.953003,-0.5625 -1.484009,-1.109402q-1.030991,-0.953098 -1.640991,-2.140598q-0.594009,-1.203091 -1.046997,-2.328091q-0.437012,-1.140701 -0.75,-1.953201q-0.312012,-0.828098 0.015991,-0.468697q0.469009,-0.218803 0.156006,0.140598q-0.311996,0.3438 -0.686996,0.9375q-0.375,0.578098 -0.828003,1.3125q-0.45401,0.7188 -1.141006,1.328098q-1.405991,1.421902 -3.405991,2.546902q-2,1.109402 -4.282013,1.703098q-1.967987,0.546902 -4.092987,0.546902q-0.438004,0 -0.782013,-0.078098q-2.389999,-0.046902 -4.858994,-1.156303q-2.468994,-1.6875 -4.375,-4.156197q-1.906013,-2.468803 -3.046997,-5.468803q-1.125,-3.015598 -1.264999,-6.328098q-0.063004,-0.4062 -0.063004,-0.8906q0,-2.9688 1.078003,-6.0781q0.421997,-1.0938 1.110001,-2.390699q0.702995,-1.296801 1.561996,-2.5q0.875,-1.2031 1.858994,-2.2187q0.985001,-1.0313 2.016006,-1.6875q2.483994,-1.5313 5.453003,-2q1.530991,-0.2031 3.063004,-0.2031q1.25,0 2.592987,0.1406q2.875,0.3906 5.563004,1.4844q2.686996,1.0937 3.952988,2.0156q-0.172012,0.1875 0.75,-0.5313q0.937988,-0.734301 2.062988,-1.25q1.078003,-0.421801 2.139999,-0.421801l0.360001,0q1.483994,0.0937 2.953003,1.5781q0.639999,2.4531 0.639999,4.5l0,0.9844q-0.203003,2.5 -0.859009,4.7812q-0.655991,2.2656 -1.593994,4.25q-0.921997,1.984402 -1.514999,3.203098q0.764999,2.375 1.858994,4.921902q1.094009,2.5313 2.452988,3.9063l0.141022,0q1.311996,0 2.155991,0.421799q0.969009,0.609402 2.156006,2.328201l0.000031,-0.000011zm-9.531006,-23.484398q-0.172012,0.2656 -0.265991,2.0312l0,0.9688q0,1.6562 -0.328003,-0.5313q-1.514999,3.0469 -1.046997,1.9063q0.468979,-1.1563 0.75,-2.3281q0.156998,-0.9063 0.156998,-1.7969l0,-0.4063q-0.031998,-0.546801 0.733994,0.1563zm-5.780991,10.9687q-0.203003,-2.0312 -0.453003,-4.8281q-0.188004,-1.6875 -0.188004,-3.3281q0,-1.1094 0.031006,-1.7031q-0.422012,-0.6875 -1.639999,-1.5469q-1.203003,-0.875 -2.672012,-1.4375q-1.468979,-0.5781 -3.125,-0.8125q-0.968979,-0.1094 -1.827988,-0.1094q-0.688004,0 -1.375,0.0625q-1.938004,0.2188 -3.375,0.9063q-1.438004,0.6875 -2.391006,1.5312q-0.561996,1.0625 -1.358994,2.5156q-0.782013,1.4375 -1.344009,3.015699q-0.546997,1.5781 -0.780991,3.234301q-0.047012,0.5938 -0.047012,1.1563q0,1.046898 0.219009,2.078098q0.203003,0.875 0.687012,2q0.5,1.125 1.172012,2.234402q0.671997,1.0937 1.421997,1.984409q0.764999,0.890591 1.437012,1.359299q0.985001,0.703201 2.390991,0.906303q0.952988,0.171909 2.031006,0.171909q0.563004,0 0.985001,-0.0313q1.733994,-0.5312 3.155991,-1.546902q1.422012,-1.0312 2.656021,-2.328098q1.25,-1.3125 2.391022,-2.8437q1.139999,-1.546902 2,-2.640701l-0.000031,-0.000019l-0.000031,0zm27,17.578209q-0.453003,1.203091 -1.188004,1.7812q-0.719009,0.578098 -1.594009,0.7813q-0.467987,0.0937 -0.967987,0.0937q-0.422012,0 -0.735001,-0.078098q-1,-0.109402 -2.093002,-1.203091q-0.735001,-6.703201 -1.5,-12.875q-0.75,-6.1875 -1.063004,-12.281301q-0.186996,-3.4219 -0.186996,-6.7656q0,-2.7188 0.125,-5.437499q0.264999,-6.093801 1.686996,-12.9844q1.578003,-0.4687 2.328003,-0.4687q0.485001,0 1.093994,0.1093q1.234009,0.4688 2.436996,1.7969q-1.014999,6.4844 -1.264999,12.421899q-0.187988,2.9844 -0.187988,5.9375q0,2.8906 0.187988,5.875q0.25,5.890602 1.014999,11.6562q0.782013,5.75 1.907013,11.640701l0,-0.000011z" fill="#ffffff"/>
   <path id="svg_6" fill-rule="nonzero" d="m218.539001,27.25q-1.186996,-0.125 -1.875,-0.5937q-0.686996,-0.4688 -1.186996,-1.0625q-0.5,-0.5938 -0.938004,-1.2188q-0.436996,-0.625 -1.186996,-1.0625q-1.438004,-0.875 -3.438004,-1.5937q-2,-0.7188 -4.218994,-1.125q-2.218002,-0.4063 -4.468002,-0.4063q-2.312988,0 -4.375,0.5625q-1.437988,0.4375 -2.844009,1.375q-1.405991,0.9375 -2.593979,2.2188q-1.187012,1.2812 -2.093994,2.75q-0.906006,1.4687 -1.281006,2.9062q-0.687012,2.4375 -0.687012,4.8125q0,0.8125 0.125,1.5625q0.25,3.1875 1.5,5.9063q1.25,2.7187 3.405991,4.6562q2.156021,1.9375 5.094009,2.6875q2.062012,0.5 4.125,0.5q0.187012,0.0625 0.312012,0.0625q1.875,0 3.687988,-0.375q1.875,-0.375 3.530991,-1.0937q1.656021,-0.7188 2.969009,-1.5938q0.312012,-0.25 0.625,-0.6562q0.312012,-0.4063 0.655991,-0.7813q0.344009,-0.375 0.781021,-0.625q0.437988,-0.25 1.062988,-0.25q1.062012,0.0625 1.625,0.875q0.375,0.5 0.375,1.25q0,0.375 -0.125,0.8125q-0.125,0.3125 -0.625,0.6875q-0.5,0.375 -1.094009,0.7813q-0.593979,0.4062 -1.187988,0.75q-0.593002,0.3437 -0.843002,0.4687q-0.687988,0.375 -1.687988,0.5313q-1,0.1562 -1.875,0.5312q-0.875,0.375 -1.5,0.7188q-0.625,0.3437 -1.281021,0.6875q-0.655991,0.3437 -1.375,0.5937q-0.718979,0.25 -1.718979,0.3125q-0.812012,0.0625 -1.687012,0.0625q-3,0 -5.875,-0.9375q-3.625,-1.125 -6.187988,-3.125q-0.437012,-0.3125 -0.75,-0.9062q-0.312012,-0.5938 -0.75,-0.9688q-0.875,-0.8125 -1.75,-1.4375q-0.875,-0.625 -1.375,-1.875q-0.625,-1.5 -0.937012,-3.4062q-0.312988,-1.9063 -0.5,-3.5313q-0.187988,-1.4375 -0.187988,-2.8125q0,-2.875 0.812988,-5.5625q1.187012,-3.875 3.5,-6.625q0.5,-0.5 1.187012,-0.9062q0.687988,-0.4063 1.375,-1.0313q0.687988,-0.625 1.093979,-1.2812q0.406021,-0.6563 0.969009,-0.9688q0.375,-0.1875 1.155991,-0.5q0.781021,-0.3125 1.687012,-0.5937q0.906998,-0.2813 1.812988,-0.5q0.906021,-0.2188 1.594009,-0.2813q1.375,-0.1875 2.562012,-0.1875q1.375,0 2.562988,0.1875q2.312012,0.4375 4.5,1.25q1.312012,0.4375 2.375,0.8438q1.062012,0.4062 2,0.875q0.937012,0.4687 1.843002,1.0625q0.906998,0.5937 1.906998,1.4062q0.687012,0.5625 1.5,1.2188q0.812012,0.6562 1.25,1.3437q0.312012,0.5625 0.312012,1.0625l0,0.3125q-0.187012,0.6875 -1.375,1.25l-0.000015,0z" fill="#ffffff"/>
   <path id="svg_7" fill-rule="nonzero" d="m246.867004,35.484402l0,0.515598q0,1.0313 -0.139999,1.9688q-0.094009,0.703091 -0.094009,1.265591q0,0.421909 0.046997,0.796909q-0.562988,2.4375 -1.734985,4.640591q-1.172012,2.203098 -2.859024,3.828098q-1.687988,1.609402 -3.890976,2.453102q-1.593002,0.609398 -3.375,0.609398q-0.703003,0 -1.453003,-0.0937q-2.437012,-0.2813 -4.156021,-1.5q-1.702988,-1.2188 -2.827988,-3.0938q-1.125,-1.875 -1.687988,-4.2812q-0.562012,-2.421909 -0.703003,-5.046909q-0.046997,-0.796898 -0.046997,-1.6875q0,-0.890598 0.046997,-1.875q0.046997,-0.9375 0.046997,-1.921898q0,-0.9375 -0.046997,-1.875q-0.046997,-0.8437 -0.234009,-1.8281q-0.140991,-0.5625 -0.140991,-0.9844q0,-0.2812 0.046997,-0.4687q0.140991,-0.5625 0.483994,-0.8438q0.360001,-0.2812 0.82901,-0.3281l0.139999,0q0.375,0 0.75,0.1406q0.421997,0.2344 0.796997,0.703098q0.046997,1.5 0.046997,3.046902q0,1.5469 -0.046997,3.0938q-0.046997,0.890598 -0.046997,1.734299q0,2.1563 0.187988,4.171902q0.234009,2.8125 1.078003,5.1875q0.844009,2.359398 2.812012,3.9063q0.562988,0.421799 1.281998,0.6562q0.733978,0.234398 1.530991,0.328098q0.796997,0.0938 1.656006,0.125q0.875,0.015701 1.671997,0.015701q2.531006,-0.9375 4.046997,-2.7813q1.531021,-1.859402 2.703003,-4.109402q0.281006,-1.6875 0.468994,-3.1562q0.187012,-1.484398 0.281006,-2.9375l0,-2.953098q-0.093994,-1.453201 -0.281006,-3.1875q-0.327988,-0.4219 -0.515991,-1.078201q-0.141006,-0.468699 -0.141006,-0.984299l0,-0.2344q0.047012,-0.6094 0.32901,-1.0781q0.280991,-0.4688 0.936996,-0.5625l0.188004,0q0.561996,0 0.843002,0.234299q0.327988,0.281301 0.468979,0.75q0.140991,0.421902 0.140991,0.9375l0,0.140701q-0.047012,0.609299 -0.093994,1.0781q0,0.6094 0.093994,1.4844q0.092987,0.859299 0.202988,1.7812q0.125,0.9063 0.234009,1.796898q0.125,0.890602 0.125,1.5l0.000031,0.000023zm26.343994,-4.875002q-0.796997,0.4219 -1.312988,0.4219q-0.187012,0 -0.281006,-0.0938q-0.515015,-0.1875 -0.734039,-0.75q-0.202972,-0.5625 -0.343964,-1.2812q-0.140991,-0.7344 -0.656036,-1.1563q-0.375,-0.3281 -0.68808,-0.3906q-0.296997,-0.0781 -0.577881,-0.0938q-0.281128,-0.0312 -0.640015,-0.046801q-0.343994,-0.0313 -0.859985,-0.265699q-1.125,0.4688 -2.343994,0.828199q-1.218018,0.3437 -2.343018,0.796801q-1.125,0.4375 -2.093994,1.0313q-0.953003,0.5781 -1.515991,1.4687q0.187988,2.624998 0.578003,5.1094q0.406982,2.484402 0.687988,4.9063q0.281006,2.4062 0.375,4.890591l0,0.703098q0,2.1563 -0.375,4.4063q-0.468994,0.75 -1.265991,1.1875q-0.796997,0.453091 -1.687012,0.875q-1.687988,-0.0938 -2.562988,-0.9375q-0.859024,-0.8438 -1.281021,-2.046909q-0.422012,-1.1875 -0.609009,-2.5q-0.188004,-1.3125 -0.515991,-2.390591q0.375,-1.6875 0.468979,-3.515697q0.093979,-1.828102 0.297012,-3.5312q0.218018,-1.7188 0.796997,-3.171902q0.593033,-1.453098 1.953003,-2.390598q0.186996,-0.4688 0.186996,-0.9844q0,-0.2812 -0.046997,-0.6094q-0.187012,-0.8437 -0.547012,-1.7031q-0.343018,-0.875 -0.718018,-1.6719q-0.375,-0.796801 -0.468994,-1.546801q-0.046997,-0.1875 -0.046997,-0.375q0,-0.515699 0.187988,-0.890699q0.281021,-0.5625 1.264999,-0.8906q0.516022,0.3281 0.813019,0.7969q0.312012,0.4687 0.562012,1.0312q0.265991,0.5625 0.468933,1.1563q0.218994,0.5781 0.547058,1.0937q1.546997,-0.4687 3.156006,-1.234301q1.625,-0.7813 3.875,-1.2969q0.609009,-0.1406 1.171997,-0.4219q0.562012,-0.2812 1.031036,-0.375q0.468964,-0.0469 0.890961,-0.0469q0.984039,0 1.922028,0.1875q1.359009,0.328199 2.264984,1.078199q0.922028,0.75 1.25,1.921801q0.140991,0.4219 0.140991,0.890699q0,0.8437 -0.375,1.8281l0,0l0.000031,0.00001zm-16.078003,19.875002q0.375,-1.546902 0.421997,-3.468803l0,-0.75q0,-1.546799 -0.140991,-3.140598q-0.187012,-2.015598 -0.515991,-3.953098q-0.328003,-1.953091 -0.703003,-3.546902q-0.561951,1.453098 -0.983948,3.5625q-0.421997,2.109402 -0.421997,4.265598q0,2.156303 0.515976,4.078201q0.514999,1.921799 1.827957,2.953091l0,0.000011zm40.359009,-19.875002q-0.796997,0.4219 -1.312012,0.4219q-0.187988,0 -0.281982,-0.0938q-0.515015,-0.1875 -0.734009,-0.75q-0.203003,-0.5625 -0.343994,-1.2812q-0.140015,-0.7344 -0.656006,-1.1563q-0.375,-0.3281 -0.687012,-0.3906q-0.296997,-0.0781 -0.578979,-0.0938q-0.281006,-0.0312 -0.640015,-0.046801q-0.343994,-0.0313 -0.859985,-0.265699q-1.125,0.4688 -2.343018,0.828199q-1.218994,0.3437 -2.343994,0.796801q-1.125,0.4375 -2.093994,1.0313q-0.953003,0.5781 -1.515015,1.4687q0.187012,2.624998 0.578003,5.1094q0.406006,2.484402 0.687012,4.9063q0.281006,2.4062 0.375,4.890591l0,0.703098q0,2.1563 -0.375,4.4063q-0.468994,0.75 -1.265015,1.1875q-0.796997,0.453091 -1.687988,0.875q-1.687012,-0.0938 -2.562012,-0.9375q-0.859985,-0.8438 -1.281982,-2.046909q-0.421997,-1.1875 -0.609009,-2.5q-0.187988,-1.3125 -0.515991,-2.390591q0.375,-1.6875 0.468994,-3.515697q0.093994,-1.828102 0.296997,-3.5312q0.218994,-1.7188 0.796997,-3.171902q0.593994,-1.453098 1.953003,-2.390598q0.187012,-0.4688 0.187012,-0.9844q0,-0.2812 -0.046021,-0.6094q-0.187988,-0.8437 -0.546997,-1.7031q-0.343994,-0.875 -0.718994,-1.6719q-0.375,-0.796801 -0.468964,-1.546801q-0.047028,-0.1875 -0.047028,-0.375q0,-0.515699 0.187988,-0.890699q0.281128,-0.5625 1.265015,-0.8906q0.515991,0.3281 0.812988,0.7969q0.312012,0.4687 0.562012,1.0312q0.265991,0.5625 0.468994,1.1563q0.218994,0.5781 0.546997,1.0937q1.546997,-0.4687 3.156006,-1.234301q1.625,-0.7813 3.875,-1.2969q0.610107,-0.1406 1.172028,-0.4219q0.56308,-0.2812 1.031097,-0.375q0.468903,-0.0469 0.890991,-0.0469q0.984009,0 1.921997,0.1875q1.359009,0.328199 2.265991,1.078199q0.921021,0.75 1.25,1.921801q0.139923,0.4219 0.139923,0.890699q0,0.8437 -0.375,1.8281l0,0l0,0.00001l0,0l0,0l-0.000031,0zm-16.078003,19.875002q0.375,-1.546902 0.421997,-3.468803l0,-0.75q0,-1.546799 -0.140991,-3.140598q-0.187012,-2.015598 -0.514893,-3.953098q-0.328003,-1.953091 -0.703003,-3.546902q-0.562988,1.453098 -0.985077,3.5625q-0.422028,2.109402 -0.422028,4.265598q0,2.156303 0.515991,4.078201q0.515991,1.921799 1.828003,2.953091l0,0.000011zm21,-30.984402q0.937988,-0.5625 1.546997,-0.5625l0.234009,0q0.610107,0.1406 0.843994,0.6563q0.093994,0.3281 0.093994,0.75l0,0.421801q-0.140991,0.703199 -0.515991,1.125q-0.375,0.375 -0.890015,0.375q-0.093994,0 -0.140991,-0.046801q-0.656006,-0.0469 -1.453003,-0.9844q-0.046997,-0.1875 -0.046997,-0.3281q0,-0.375 0.187012,-0.6094q0.140991,-0.2344 0.140991,-0.6094l0,-0.1875zm3.75,32.9063q-0.468994,0.1875 -0.843994,0.1875q-0.281006,0 -0.468018,-0.140701q-0.515991,-0.234299 -0.843994,-0.828098q-0.327881,-0.578098 -0.515961,-1.3125q-0.18692,-0.7187 -0.422028,-1.328098q-0.796997,-2.015591 -1.359009,-4.593803q-0.562988,-2.578098 -0.796997,-5.343697q-0.187012,-2.296902 -0.187012,-4.640602l0,-0.9375q0.046021,-2.765699 0.468018,-5.1563q0.610107,-0.5625 1.312988,-0.5625l0.187012,0q0.797028,0.0938 1.125,0.8438q0.140991,0.2812 0.140991,0.609301q0,0.328199 -0.093964,0.703199q-0.234039,0.796801 -0.327911,1.6875q-0.093994,1.0312 -0.093994,2.296799l0,0.843803q0.046997,1.781197 0.093994,2.953098q0,0.984402 0.062988,2.1875q0.078003,1.1875 0.264923,2.4063q0.18808,1.2187 0.43808,2.390591q0.264893,1.171909 0.639893,2.109409q0.281982,0.796799 0.75,1.5312q0.468994,0.7188 0.765991,1.375q0.312012,0.6563 0.312012,1.3125q0,0.703098 -0.609009,1.4063zm29.484009,-19.5q-0.890015,-0.0938 -1.406006,-0.4375q-0.515015,-0.359398 -0.890015,-0.7969q-0.375,-0.4531 -0.703979,-0.9219q-0.328003,-0.4687 -0.890015,-0.7969q-1.077881,-0.6562 -2.577881,-1.1875q-1.5,-0.546801 -3.172119,-0.8437q-1.656006,-0.3125 -3.343872,-0.3125q-1.734009,0 -3.281128,0.4219q-1.077881,0.3281 -2.140961,1.0312q-1.047028,0.7031 -1.93692,1.6719q-0.890991,0.9531 -1.578003,2.062502q-0.671997,1.093697 -0.953979,2.171898q-0.515015,1.828102 -0.515015,3.609299q0,0.609402 0.093994,1.171902q0.187012,2.390598 1.125,4.4375q0.937012,2.0313 2.546021,3.484402q1.625,1.453098 3.828979,2.015598q1.546021,0.375 3.093018,0.375q0.140991,0.046902 0.234985,0.046902q1.406006,0 2.765015,-0.281303q1.406982,-0.281197 2.640991,-0.8125q1.25,-0.546799 2.234009,-1.203098q0.234985,-0.1875 0.468994,-0.484402q0.234009,-0.3125 0.484009,-0.593697q0.265991,-0.281303 0.593903,-0.468803q0.327972,-0.1875 0.797089,-0.1875q0.796997,0.046902 1.218872,0.656303q0.281128,0.375 0.281128,0.9375q0,0.281197 -0.093994,0.609409q-0.093018,0.234299 -0.468018,0.515591q-0.375,0.281197 -0.828979,0.593697q-0.437012,0.296902 -0.890015,0.546902q-0.437988,0.265598 -0.625,0.359402q-0.515991,0.281197 -1.265991,0.390598q-0.75,0.125 -1.406006,0.4063q-0.656006,0.2812 -1.125,0.5312q-0.468994,0.265598 -0.968994,0.515598q-0.484009,0.265701 -1.031006,0.453201q-0.531006,0.1875 -1.281006,0.234299q-0.610107,0.046902 -1.265991,0.046902q-2.25,0 -4.406128,-0.703098q-2.718872,-0.843803 -4.640961,-2.343803q-0.327911,-0.234299 -0.56192,-0.671799q-0.235107,-0.453201 -0.56308,-0.734409q-0.656036,-0.609402 -1.31192,-1.078091q-0.656982,-0.4688 -1.031982,-1.4063q-0.468018,-1.125 -0.703033,-2.546902q-0.233978,-1.4375 -0.375,-2.656197q-0.139984,-1.078091 -0.139984,-2.109402q0,-2.1562 0.609009,-4.171902q0.890991,-2.906199 2.625,-4.968699q0.375,-0.375 0.890991,-0.6719q0.515015,-0.3125 1.031006,-0.7812q0.515991,-0.4688 0.812012,-0.953199q0.312988,-0.5 0.734985,-0.734301q0.281006,-0.140699 0.859009,-0.375q0.593994,-0.2344 1.265991,-0.4375q0.687012,-0.2188 1.359009,-0.375q0.687988,-0.1719 1.203003,-0.2188q1.031982,-0.1406 1.921997,-0.1406q1.031006,0 1.921997,0.1406q1.734009,0.3281 3.375,0.9375q0.984009,0.3281 1.781006,0.6406q0.796997,0.2969 1.5,0.6563q0.703003,0.3437 1.375,0.7969q0.687988,0.4375 1.437988,1.046801q0.515015,0.4219 1.125,0.9219q0.609009,0.4844 0.937012,1q0.235046,0.4219 0.235046,0.7969l0,0.2344q-0.140961,0.515602 -1.031952,0.9375l-0.000031,0l-0.000061,0l-0.000061,0l-0.000061,0zm27.656982,2.578102l0,0.515598q0,1.0313 -0.140991,1.9688q-0.093994,0.703091 -0.093994,1.265591q0,0.421909 0.047028,0.796909q-0.56192,2.4375 -1.734039,4.640591q-1.171997,2.203098 -2.859985,3.828098q-1.687012,1.609402 -3.890015,2.453102q-1.593872,0.609398 -3.375,0.609398q-0.702881,0 -1.452881,-0.0937q-2.43808,-0.2813 -4.156982,-1.5q-1.703003,-1.2188 -2.828003,-3.0938q-1.125,-1.875 -1.687012,-4.2812q-0.562988,-2.421909 -0.703003,-5.046909q-0.046997,-0.796898 -0.046997,-1.6875q0,-0.890598 0.046997,-1.875q0.046997,-0.9375 0.046997,-1.921898q0,-0.9375 -0.046997,-1.875q-0.046997,-0.8437 -0.234985,-1.8281q-0.140015,-0.5625 -0.140015,-0.9844q0,-0.2812 0.046997,-0.4687q0.140015,-0.5625 0.484009,-0.8438q0.359009,-0.2812 0.828003,-0.3281l0.140991,0q0.375,0 0.75,0.1406q0.421997,0.2344 0.796997,0.703098q0.046021,1.5 0.046021,3.046902q0,1.5469 -0.046021,3.0938q-0.046997,0.890598 -0.046997,1.734299q0,2.1563 0.187012,4.171902q0.234985,2.8125 1.078003,5.1875q0.843994,2.359398 2.812988,3.9063q0.562012,0.421799 1.281006,0.6562q0.734009,0.234398 1.531006,0.328098q0.796997,0.0938 1.656982,0.125q0.875,0.015701 1.671021,0.015701q2.531982,-0.9375 4.046997,-2.7813q1.531982,-1.859402 2.703003,-4.109402q0.281982,-1.6875 0.468994,-3.1562q0.187988,-1.484398 0.281006,-2.9375l0,-2.953098q-0.093018,-1.453201 -0.281006,-3.1875q-0.328003,-0.4219 -0.515015,-1.078201q-0.140991,-0.468699 -0.140991,-0.984299l0,-0.2344q0.046997,-0.6094 0.328003,-1.0781q0.281006,-0.4688 0.937988,-0.5625l0.187012,0q0.562988,0 0.843994,0.234299q0.328003,0.281301 0.468994,0.75q0.139923,0.421902 0.139923,0.9375l0,0.140701q-0.047028,0.609299 -0.093903,1.0781q0,0.6094 0.093903,1.4844q0.093964,0.859299 0.202972,1.7812q0.125,0.9063 0.235107,1.796898q0.125,0.890602 0.125,1.5l-0.000031,0.000023l-0.000031,0l-0.000031,0l-0.000031,0zm10.5,16.781197q-0.140991,0.375 -0.5,0.656303q-0.343994,0.281197 -0.765991,0.375q-0.234009,0.046909 -0.515991,0.046909q-0.187012,0 -0.375,-0.046909q-0.468018,-0.046902 -0.796021,-0.375q-0.515991,-4.6875 -1.078979,-9.296902q-0.562012,-4.625 -0.796021,-9.171902q-0.140991,-2.531199 -0.140991,-5.015598q0,-2.0156 0.093994,-4.0312q0.187012,-4.5 1.125,-9q0.468018,-0.140699 0.890015,-0.140699q0.281982,0 0.562988,0.0469q0.609009,0.2344 1.031006,0.7031q-0.703003,4.453199 -0.890991,8.953199q-0.140015,2.25 -0.140015,4.5q0,2.203102 0.140015,4.453102q0.187988,4.453098 0.765991,8.8125q0.593994,4.359409 1.390991,8.531197zm27.796997,-16.781197l0,0.515598q0,1.0313 -0.140991,1.9688q-0.093964,0.703091 -0.093964,1.265591q0,0.421909 0.047089,0.796909q-0.562012,2.4375 -1.734009,4.640591q-1.172119,2.203098 -2.860107,3.828098q-1.687012,1.609402 -3.889893,2.453102q-1.593994,0.609398 -3.375,0.609398q-0.703003,0 -1.453003,-0.0937q-2.437988,-0.2813 -4.156982,-1.5q-1.703003,-1.2188 -2.828003,-3.0938q-1.125,-1.875 -1.687012,-4.2812q-0.562988,-2.421909 -0.703003,-5.046909q-0.046997,-0.796898 -0.046997,-1.6875q0,-0.890598 0.046997,-1.875q0.046021,-0.9375 0.046021,-1.921898q0,-0.9375 -0.046021,-1.875q-0.046997,-0.8437 -0.234985,-1.8281q-0.140015,-0.5625 -0.140015,-0.9844q0,-0.2812 0.046021,-0.4687q0.140991,-0.5625 0.484985,-0.8438q0.359009,-0.2812 0.828003,-0.3281l0.140991,0q0.375,0 0.75,0.1406q0.421021,0.2344 0.796021,0.703098q0.046997,1.5 0.046997,3.046902q0,1.5469 -0.046997,3.0938q-0.046021,0.890598 -0.046021,1.734299q0,2.1563 0.187012,4.171902q0.234009,2.8125 1.078003,5.1875q0.843994,2.359398 2.812988,3.9063q0.562012,0.421799 1.281006,0.6562q0.734009,0.234398 1.531006,0.328098q0.796997,0.0938 1.656006,0.125q0.875,0.015701 1.671997,0.015701q2.531982,-0.9375 4.046997,-2.7813q1.531128,-1.859402 2.703003,-4.109402q0.281982,-1.6875 0.468994,-3.1562q0.187988,-1.484398 0.281006,-2.9375l0,-2.953098q-0.093018,-1.453201 -0.281006,-3.1875q-0.328003,-0.4219 -0.515991,-1.078201q-0.140015,-0.468699 -0.140015,-0.984299l0,-0.2344q0.047058,-0.6094 0.328003,-1.0781q0.281006,-0.4688 0.937012,-0.5625l0.187988,0q0.562012,0 0.843994,0.234299q0.328003,0.281301 0.468018,0.75q0.140991,0.421902 0.140991,0.9375l0,0.140701q-0.046997,0.609299 -0.093994,1.0781q0,0.6094 0.093994,1.4844q0.093994,0.859299 0.203003,1.7812q0.125,0.9063 0.234985,1.796898q0.125,0.890602 0.125,1.5l-0.000031,0.000023l-0.000031,0l-0.000031,0l-0.000031,0zm41.765015,-6.140602q0.703003,2.2031 0.796997,4.3125l0,0.984299q0,1.640701 -0.234009,3.234402q-0.328003,2.0625 -0.937988,4.078098q-0.609009,2.015701 -1.359009,3.984402q-0.515991,1.4063 -1.265991,2.703098q-0.75,1.281303 -1.546997,2.3125q-0.234009,-0.093697 -0.375,-0.093697l-0.187012,0q-0.140991,0.093697 -0.421997,0.093697l-0.281006,0q-0.421997,-0.281197 -0.562988,-0.796799q-0.093994,-0.2813 -0.093994,-0.609409q0,-0.1875 0.046997,-0.375q0.046997,-0.4688 0.296997,-0.9375q0.265991,-0.4688 0.640991,-0.703091q0.796997,-2.015701 1.546997,-4.0938q0.75,-2.0937 1.593018,-4.0625q0.093994,-1.3125 0.234985,-2.7187q0.093994,-1.0313 0.093994,-2.015701l0,-0.656197q-0.046997,-1.3125 -0.359985,-2.484402q-0.296997,-1.1719 -1.046997,-2.0156q-0.468018,-0.3281 -1.125,-0.5625q-0.656006,-0.2344 -1.406006,-0.3281q-0.375,-0.0469 -0.75,-0.0469q-0.375,0 -0.703003,0.0469q-0.75,0.0937 -1.359009,0.421801q-1.125,0.7969 -1.968994,1.8594q-0.843994,1.0469 -1.781006,2.078098q-0.375,0.984402 -0.843994,1.953201q-0.468994,0.953102 -0.890991,1.9375q-0.421997,0.984299 -0.781006,2.015602q-0.343994,1.031197 -0.484009,2.203098q-0.140991,1.078098 -0.140991,2.0625q0,0.1875 0.046997,0.328098q0,1.125 0.046997,2.25q0.046997,1.125 0.093018,2.296902l0,0.2813q0,1.0312 -0.187012,2.203091q-0.656006,0.6562 -1.734009,0.796909q-0.75,-0.6563 -0.984985,-1.5q-0.234009,-0.8438 -0.234009,-1.828201q0,-0.9375 0.140015,-1.9375q0.140991,-1.015598 0.140991,-1.953098q0,-2.296902 -0.125,-4.6875q-0.109009,-2.390598 -0.531006,-4.515598q-0.421997,-2.140602 -1.312988,-3.937502q-0.890015,-1.8125 -2.437012,-2.9844q-0.609985,-0.1406 -1.171997,-0.1406q-0.468994,0 -0.890991,0.0937q-0.890015,0.2344 -1.625,0.703199q-0.718018,0.4687 -1.328003,1.0781q-0.609009,0.6094 -1.218994,1.0781q-0.328003,0.7969 -0.75,1.578098q-0.421021,0.765701 -0.875,1.593803q-0.437012,0.8125 -0.812012,1.703098q-0.375,0.890598 -0.562988,1.875q-0.234009,1.3125 -0.234009,2.671902q0,0.375 0.046997,0.703098q0.046997,1.734402 0.328003,3.4688q0.281006,1.734299 0.656006,3.453091q0.375,1.703098 0.609985,3.296909q-0.328003,0.75 -1.171997,1.125q-0.281006,0.140591 -0.562988,0.140591q-0.562012,0 -1.078003,-0.4688q-0.703003,-2.296803 -1.109009,-5.265602q-0.390991,-2.984398 -0.796997,-6.125q-0.390991,-3.140598 -0.937988,-6.140598q-0.531006,-3 -1.562012,-5.3438q-0.140991,-0.3281 -0.328003,-0.609301q-0.187988,-0.2813 -0.328003,-0.578199q-0.140991,-0.3125 -0.187988,-0.6875l0,-0.1875q0,-0.3281 0.093994,-0.75q0.703003,-0.5625 1.265991,-0.5625q0.140015,0 0.234009,0.0469q0.656006,0.1406 1.125,0.7969q0.468994,0.6562 0.812012,1.6875q0.359985,1.0312 0.609985,2.1562q0.265015,1.125 0.5,2.1563q0.234009,1.0312 0.468994,1.6875q1.171021,-2.4375 2.640015,-4.5156q1.484985,-2.0938 3.593994,-3.5938q0.937012,-0.1406 1.640991,-0.4844q0.703003,-0.359301 1.5,-0.6406q1.921021,0.2344 3.25,1.0625q1.343018,0.8125 2.25,2.0625q0.921021,1.2344 1.453003,2.8594q0.546997,1.609398 0.875,3.4375q1.546997,-2.25 3.093018,-4.375q1.546997,-2.1406 3.656982,-3.7813q1.125,-0.2812 2.25,-0.2812q0.702972,0 1.359009,0.0937q1.781006,0.2813 3.468964,0.6563q0.609039,0.7031 1.218903,1.3594q0.609009,0.6562 1.265015,1.3125l0.000031,0.00001l0.000031,0l0.000031,0l0.000031,0z" fill="#ffffff"/>
   <path id="svg_8" fill-rule="nonzero" d="m482.796997,19.3125q0.187012,0.5625 0.187012,1.0625l0,0.375q-0.125,0.625 -0.406006,1.0938q-0.281006,0.4687 -0.656006,0.875q-0.375,0.4062 -0.75,0.7812q-1.5,3.8125 -3.343994,7.2188q-1.843994,3.4062 -3.75,6.7187q-1.906006,3.3125 -3.781006,6.7188q-1.875,3.4062 -3.375,7.1562q-0.5,0.1875 -0.937988,0.1875q-0.25,0 -0.437012,-0.0625q-0.625,-0.125 -1.312988,-0.3125q-1.125,-4.25 -2.875,-7.9375q-1.75,-3.6875 -3.656006,-7.1875q-1.906128,-3.5 -3.718994,-7.0937q-1.812012,-3.5938 -3.125,-7.6563q0,-0.3125 -0.156006,-0.4687q-0.156128,-0.1563 -0.343994,-0.2813q-0.187012,-0.125 -0.375,-0.2812q-0.187012,-0.1563 -0.187012,-0.4688l0,-0.25q0,-0.75 0.312012,-1.25q0.312988,-0.625 0.875,-0.9375q0.375,-0.1875 0.812988,-0.1875q0.187012,0 0.375,0.0625q0.625,0.125 1.187012,0.6875q0.187988,0.875 0.562988,1.625q0.375,0.75 0.781006,1.4375q0.406006,0.6875 0.718994,1.4688q0.312012,0.7812 0.437012,1.7187q1.25,2.1875 2.218994,4.625q0.968872,2.4375 1.968872,4.8125q1,1.0625 1.75,2.375q0.75,1.3125 1.468994,2.6563q0.718018,1.3437 1.375,2.75q0.656006,1.4062 1.468018,2.6562q1.625,-2.9375 3.468994,-5.8437q1.843994,-2.9063 3.562988,-5.9063q1.718018,-3 3.187012,-6.125q1.468994,-3.125 2.343994,-6.5625q0.5,-0.1875 0.812012,-0.5625q0.312988,-0.375 0.812988,-0.5q0.687012,0.125 1.343994,0.3125q0.656006,0.1875 1.156006,0.5l0.000031,0l0.000031,0l0.000031,0l0.000031,0z" fill="#ffffff"/>
   <path id="svg_9" fill-rule="nonzero" d="m488.125,19.5q0.937988,-0.5625 1.546997,-0.5625l0.234009,0q0.609985,0.1406 0.843994,0.6563q0.093994,0.3281 0.093994,0.75l0,0.421801q-0.140991,0.703199 -0.515991,1.125q-0.375,0.375 -0.890015,0.375q-0.093994,0 -0.140991,-0.046801q-0.656006,-0.0469 -1.453003,-0.9844q-0.046997,-0.1875 -0.046997,-0.3281q0,-0.375 0.187012,-0.6094q0.140991,-0.2344 0.140991,-0.6094l0,-0.1875zm3.75,32.9063q-0.468994,0.1875 -0.843994,0.1875q-0.281006,0 -0.468018,-0.140701q-0.515991,-0.234299 -0.843994,-0.828098q-0.328003,-0.578098 -0.515991,-1.3125q-0.187012,-0.7187 -0.421997,-1.328098q-0.796997,-2.015591 -1.359009,-4.593803q-0.562988,-2.578098 -0.796997,-5.343697q-0.187012,-2.296902 -0.187012,-4.640602l0,-0.9375q0.046021,-2.765699 0.468018,-5.1563q0.609985,-0.5625 1.312988,-0.5625l0.187012,0q0.796997,0.0938 1.125,0.8438q0.140991,0.2812 0.140991,0.609301q0,0.328199 -0.093994,0.703199q-0.234009,0.796801 -0.328003,1.6875q-0.093994,1.0312 -0.093994,2.296799l0,0.843803q0.047119,1.781197 0.093994,2.953098q0,0.984402 0.062988,2.1875q0.078003,1.1875 0.265015,2.4063q0.187988,1.2187 0.437988,2.390591q0.265015,1.171909 0.640015,2.109409q0.281982,0.796799 0.75,1.5312q0.468994,0.7188 0.765991,1.375q0.312012,0.6563 0.312012,1.3125q0,0.703098 -0.609009,1.4063zm20.156006,-26.578209q0.656982,0.9375 0.656982,1.453199l0,0.0937q-0.093994,0.5625 -0.687988,0.7969q-0.578003,0.2344 -1.5,0.2656q-0.906006,0.0156 -1.890991,0.0156q-1.031006,0 -1.921021,0.078199q-0.890991,0.0625 -1.406982,0.3906q-0.609009,2.4375 -0.609009,5.109398q-0.046997,0.1875 -0.046997,0.375q0,2.484303 0.375,4.921803q0.328003,2.625 0.953003,4.9688q0.640991,2.3437 1.390991,4.078098q0.562012,0.4688 1,1.3438q0.453003,0.859303 1.343994,1.609303q0.375,0.328197 0.765015,0.5625q0.406006,0.234398 0.734985,0.484398q0.328003,0.265602 0.515015,0.5938q0.140991,0.2812 0.140991,0.6562l0,0.234402q-0.047119,0.703098 -0.610107,1.078098q-0.468018,0.328102 -0.984009,0.328102l-0.281006,0q-0.421997,-0.0937 -0.609985,-0.5q-0.187012,-0.390602 -0.796021,-0.9062q-0.234985,-0.234402 -0.640991,-0.359402q-0.390991,-0.109398 -0.578003,-0.25q-0.703003,-0.609398 -1.296997,-1.5312q-0.578003,-0.9063 -1.078003,-1.890697q-0.484985,-0.984303 -0.890991,-2.015602q-0.390015,-1.0312 -0.671997,-1.9687q-0.375,-1.078197 -0.703003,-2.390697q-0.328003,-1.3125 -0.562012,-2.9062q-0.093994,-0.796902 -0.093994,-1.5938q0,-0.515602 0.047119,-0.984303q0.046997,-0.796909 0.046997,-1.640709l0,-0.796799q-0.046997,-1.3125 -0.140991,-2.859402q-0.046997,-0.421898 -0.046997,-0.890598q0,-1.078201 0.187988,-2.203201q-0.140991,-0.046799 -0.328003,-0.046799q-0.515991,0 -1.125,0.375q-0.843994,0.4687 -1.765991,1.0625q-0.906006,0.5781 -1.796997,1.046799q-0.796997,0.375 -1.453003,0.375l-0.281006,0q-0.656982,-0.0937 -0.937988,-0.609299q-0.281128,-0.4219 -0.281128,-0.8438q0,-0.0937 0.047119,-0.234402q0.046997,-0.515598 0.561951,-0.890598q0.327942,-0.2812 0.938049,-0.2812q0.234009,0 0.468872,0.046799q1.312012,-1.078098 2.968079,-1.6875q1.672058,-0.609299 3.452942,-1.125q0.235107,-1.875 0.718994,-4.078098q0.5,-2.2031 0.875,-4.2656q0.093994,-0.5156 0.093994,-1.031301q0,-0.468699 0.046997,-0.906199q0.046997,-0.4531 0.203003,-0.781301q0.171997,-0.3281 0.593994,-0.5625q0.234009,0.0938 0.562012,0.0938q0.281006,0 0.562988,0.0469q0.281006,0.046801 0.515015,0.1875q0.234985,0.1406 0.375,0.4687q-0.421997,2.109401 -0.875,4.765599q-0.437012,2.640701 -0.671997,5.265701q0.562988,0.046799 1.125,0.046799q0.984985,0 2.109985,-0.140598q1.078003,-0.0937 2.062012,-0.0937q0.562988,0 1.124878,0.046799l0.000061,0.000011l0.000061,0l0.000061,0l0.000061,0zm33.609985,22.921898q-0.140991,0.5625 -0.328003,1.0313q-0.187988,0.4687 -0.609985,0.6562q-0.234009,0.0938 -0.562012,0.0938q-0.234985,0 -0.468994,-0.046909q-0.656006,-0.0938 -1.359009,-0.375q-0.703979,-0.2813 -1.343994,-0.6563q-0.625,-0.375 -0.953003,-0.703098q-0.656982,-0.609402 -1.062988,-1.4062q-0.390015,-0.796909 -0.718994,-1.609409q-0.328003,-0.828091 -0.593018,-1.5313q-0.25,-0.703102 -0.625,-1.125q-0.515991,0.234398 -0.843994,0.609398q-0.328003,0.375 -0.640991,0.8438q-0.296997,0.4687 -0.609009,0.9687q-0.296997,0.484402 -0.718994,0.859402q-0.984009,0.984409 -2.375,1.765598q-1.375,0.765602 -2.968933,1.1875q-1.35907,0.375 -2.81189,0.375q-0.23407,0 -0.468933,-0.046898q-1.687012,-0.046803 -3.281067,-0.75q-1.64093,-1.125 -2.98407,-2.859303q-1.329041,-1.734409 -2.125,-3.8438q-0.797119,-2.109398 -0.89093,-4.5q-0.04718,-0.2812 -0.04718,-0.5625q0,-2.0625 0.75,-4.2187q0.28125,-0.75 0.765991,-1.6563q0.5,-0.9219 1.109009,-1.7656q0.60907,-0.8438 1.28125,-1.5469q0.687988,-0.7031 1.34375,-1.125q1.68811,-1.0312 3.703003,-1.3594q1.078003,-0.1406 2.156067,-0.1406q0.89093,0 1.829041,0.0938q2.014893,0.2812 3.906128,1.0625q1.906006,0.7656 3.452942,1.8906q0.422058,-0.4219 1.047058,-0.9063q0.639832,-0.5 1.343872,-0.8281q0.60907,-0.2344 1.21814,-0.2344l0.234985,0q0.703003,0.0469 1.359009,0.703199q0.375,1.4531 0.375,2.859301l0,0.703199q-0.140991,1.734303 -0.609009,3.359303q-0.468994,1.609398 -1.156982,3.0625q-0.671021,1.453197 -1.281006,2.7188q0.703003,2.203098 1.562988,4.2187q0.875,2.015697 2.328003,3.4688l0.514832,0q0.75,0 1.125,0.1875q0.51593,0.328098 1.031921,1.078098l0,0.000019zm-6.234985,-19.312498q-0.937012,1.3594 -1.031006,2.999998l0,0.75q0,1.3125 0.234009,2.859402q0.281982,-0.5625 0.656982,-1.4688q0.375,-0.921803 0.609009,-1.9062q0.140991,-0.7969 0.140991,-1.5469l0,-0.3281q-0.046997,-0.8438 -0.609985,-1.3594zm-3.140015,10.031298q-0.187988,-1.921909 -0.375,-4.0313q-0.140991,-1.2187 -0.140991,-2.390598q0,-0.796902 0.046997,-1.5469q-0.609009,-0.9375 -1.640991,-1.6875q-1.031006,-0.75 -2.25,-1.2187q-1.218018,-0.4688 -2.578003,-0.6563q-0.796997,-0.0937 -1.5,-0.0937q-0.562012,0 -1.125,0.046801q-1.640015,0.1875 -2.859009,0.7813q-1.218994,0.5781 -2.156006,1.4219q-0.515991,0.9375 -1.125,2.062498q-0.609985,1.125 -1.062988,2.390602q-0.437012,1.265598 -0.625,2.625q-0.046997,0.515598 -0.046997,0.984409q0,0.890591 0.187988,1.7812q0.187012,0.75 0.578003,1.671902q0.406006,0.906197 0.937012,1.796909q0.546997,0.890591 1.171997,1.640591q0.640991,0.75 1.25,1.171909q0.937988,0.6562 2.203003,0.8437q0.796997,0.140598 1.687988,0.140598q0.468994,0 0.937012,-0.046799q1.546997,-0.4688 2.718994,-1.3125q1.171997,-0.8438 2.156006,-1.875q0.984985,-1.0313 1.843994,-2.203201q0.875,-1.171799 1.765991,-2.296799l0,-0.000023zm35.25,5.953091q-0.328003,1.3125 -1.265991,2.3437q-0.937012,1.0313 -1.875,1.734402q-0.843994,0.6563 -1.921997,0.984398q-1.078003,0.328102 -2.015015,0.890602q-1.781982,0.0938 -3.375,0.1563q-1.593994,0.078091 -3.187988,0.171799q-2.015991,-0.515598 -3.734009,-1.484299q-1.703003,-0.953201 -3.015991,-2.453201q-0.609009,-0.703098 -1.312012,-1.921799q-0.703979,-1.2188 -1.218994,-2.6875q-0.515991,-1.484409 -0.75,-3.078201q-0.093994,-0.5625 -0.093994,-1.171799q0,-0.9375 0.234009,-1.7813q0.093994,-0.421902 0.562988,-0.984402q0.468994,-0.5625 0.843994,-1.359299q1.218018,-2.390701 2.687012,-4.1719q1.484985,-1.781301 3.781006,-2.8594q1.453979,-0.7031 3.515991,-1.0312q1.359009,-0.1875 2.718994,-0.1875q0.75,0 1.5,0.046799q2.109009,0.1875 4,0.890701q1.906006,0.7031 2.984009,1.9687q0.703003,0.8438 1.140991,1.953098q0.453003,1.0938 0.546997,2.265701l0,0.515598q0,0.890602 -0.234985,1.734402q-0.328003,1.078098 -1.171997,1.875q-1.078003,1.0312 -2.656006,1.859299q-1.562012,0.8125 -3.375,1.359402q-1.796997,0.5313 -3.765015,0.7188q-0.937988,0.140591 -1.828979,0.140591q-1.031006,0 -1.968018,-0.140591q-1.875,-0.234409 -3.5,-0.953201q-1.609985,-0.734299 -2.781982,-2.046799q-0.046021,0.515591 -0.046021,0.984299q0,1.2188 0.328003,2.4375q0.468018,1.734402 1.406006,3.140701q0.937012,1.4062 2.312012,2.375q1.390991,0.953091 3.031982,1.234299q0.984009,0.1875 2.109009,0.1875q0.140991,0 0.281006,-0.046799q1.218994,0 2.406982,-0.203201q1.203003,-0.2187 2.281006,-0.640598q1.078003,-0.421902 1.875,-1.0312q0.703003,-0.515701 1.140015,-1.265701q0.453979,-0.75 1.203979,-1.4062q0.234009,-0.046898 0.468018,-0.046898q0.609985,0 0.984985,0.1875q0.468018,0.2813 0.75,0.796898zm-1.875,-11.578098q-0.093994,-0.890701 -0.593994,-1.4688q-0.484009,-0.5937 -0.812988,-1.5312q-0.937012,-0.890701 -2.390015,-1.265701q-1.453003,-0.375 -3.046997,-0.375q-1.640991,0 -3.312988,0.265701q-1.656006,0.25 -3.015015,0.625q-1.359985,1.125 -2.531006,2.421799q-1.171997,1.2813 -1.875,3.0625q0.796021,1.4063 2.015015,2.1875q1.218994,0.765701 2.765991,1.0938q1.453003,0.328102 3.093994,0.328102q0.093018,0 0.234009,-0.046902q1.781006,0 3.656006,-0.140598q0.75,-0.515602 1.796997,-0.984402q1.062988,-0.4687 1.968994,-1.046799q0.921997,-0.5938 1.531006,-1.3438q0.515991,-0.6562 0.515991,-1.5l0,-0.2812z" fill="#ffffff"/>
  </g>
 </g>
</svg>